pokemon-font.ufo
<glyph name="exclam" format="1">
  <advance width="80"/>
  <unicode hex="0021"/>
  <note>
    exclam
  </note>
  <outline>
    <contour>
      <point x="50" y="20" type="line"/>
      <point x="50" y="30" type="line"/>
      <point x="60" y="30" type="line"/>
      <point x="60" y="60" type="line"/>
      <point x="50" y="60" type="line"/>
      <point x="50" y="70" type="line"/>
      <point x="30" y="70" type="line"/>
      <point x="30" y="60" type="line"/>
      <point x="20" y="60" type="line"/>
      <point x="20" y="30" type="line"/>
      <point x="30" y="30" type="line"/>
      <point x="30" y="20" type="line"/>
    </contour>
    <contour>
      <point x="50" y="-10" type="line"/>
      <point x="50" y="10" type="line"/>
      <point x="30" y="10" type="line"/>
      <point x="30" y="-10" type="line"/>
    </contour>
  </outline>
</glyph>
<glyph name="quotedbl" format="1">
  <advance width="80"/>
  <unicode hex="0022"/>
  <note>
    quotesingle
  </note>
  <outline>
    <contour>
      <point x="60" y="50" type="line"/>
      <point x="60" y="70" type="line"/>
      <point x="40" y="70" type="line"/>
      <point x="40" y="60" type="line"/>
      <point x="50" y="60" type="line"/>
      <point x="50" y="50" type="line"/>
    </contour>
    <contour>
      <point x="20" y="40" type="line"/>
      <point x="20" y="50" type="line"/>
      <point x="10" y="50" type="line"/>
      <point x="10" y="40" type="line"/>
    </contour>
    <contour>
      <point x="30" y="50" type="line"/>
      <point x="30" y="70" type="line"/>
      <point x="10" y="70" type="line"/>
      <point x="10" y="60" type="line"/>
      <point x="20" y="60" type="line"/>
      <point x="20" y="50" type="line"/>
    </contour>
    <contour>
      <point x="50" y="40" type="line"/>
      <point x="50" y="50" type="line"/>
      <point x="40" y="50" type="line"/>
      <point x="40" y="40" type="line"/>
    </contour>
  </outline>
</glyph>
<glyph name="numbersign" format="1">
  <advance width="320"/>
  <unicode hex="0023"/>
  <outline>
    <contour>
      <point x="410" y="240" type="line"/>
      <point x="410" y="280" type="line"/>
      <point x="120" y="280" type="line"/>
      <point x="120" y="240" type="line"/>
    </contour>
    <contour>
      <point x="160" y="0" type="line"/>
      <point x="160" y="120" type="line"/>
      <point x="120" y="120" type="line"/>
      <point x="120" y="0" type="line"/>
    </contour>
    <contour>
      <point x="280" y="0" type="line"/>
      <point x="280" y="120" type="line"/>
      <point x="240" y="120" type="line"/>
      <point x="240" y="0" type="line"/>
    </contour>
    <contour>
      <point x="370" y="80" type="line"/>
      <point x="370" y="120" type="line"/>
      <point x="80" y="120" type="line"/>
      <point x="80" y="80" type="line"/>
    </contour>
    <contour>
      <point x="200" y="120" type="line"/>
      <point x="200" y="240" type="line"/>
      <point x="160" y="240" type="line"/>
      <point x="160" y="120" type="line"/>
    </contour>
    <contour>
      <point x="320" y="120" type="line"/>
      <point x="320" y="240" type="line"/>
      <point x="280" y="240" type="line"/>
      <point x="280" y="120" type="line"/>
    </contour>
    <contour>
      <point x="240" y="240" type="line"/>
      <point x="240" y="360" type="line"/>
      <point x="200" y="360" type="line"/>
      <point x="200" y="240" type="line"/>
    </contour>
    <contour>
      <point x="360" y="240" type="line"/>
      <point x="360" y="360" type="line"/>
      <point x="320" y="360" type="line"/>
      <point x="320" y="240" type="line"/>
    </contour>
  </outline>
</glyph>
<glyph name="quotesingle" format="1">
  <advance width="80"/>
  <unicode hex="0027"/>
  <note>
    quotesingle
  </note>
  <outline>
    <contour>
      <point x="50" y="50" type="line"/>
      <point x="50" y="70" type="line"/>
      <point x="30" y="70" type="line"/>
      <point x="30" y="60" type="line"/>
      <point x="40" y="60" type="line"/>
      <point x="40" y="50" type="line"/>
    </contour>
    <contour>
      <point x="40" y="40" type="line"/>
      <point x="40" y="50" type="line"/>
      <point x="30" y="50" type="line"/>
      <point x="30" y="40" type="line"/>
    </contour>
  </outline>
</glyph>
<glyph name="parenright" format="1">
  <advance width="80"/>
  <unicode hex="0029"/>
  <note>
    parenright
  </note>
  <outline>
    <contour>
      <point x="40" y="20" type="line"/>
      <point x="40" y="50" type="line"/>
      <point x="30" y="50" type="line"/>
      <point x="30" y="20" type="line"/>
    </contour>
    <contour>
      <point x="20" y="0" type="line"/>
      <point x="20" y="10" type="line"/>
      <point x="0" y="10" type="line"/>
      <point x="0" y="0" type="line"/>
    </contour>
    <contour>
      <point x="30" y="10" type="line"/>
      <point x="30" y="20" type="line"/>
      <point x="20" y="20" type="line"/>
      <point x="20" y="10" type="line"/>
    </contour>
    <contour>
      <point x="20" y="60" type="line"/>
      <point x="20" y="70" type="line"/>
      <point x="0" y="70" type="line"/>
      <point x="0" y="60" type="line"/>
    </contour>
    <contour>
      <point x="30" y="50" type="line"/>
      <point x="30" y="60" type="line"/>
      <point x="20" y="60" type="line"/>
      <point x="20" y="50" type="line"/>
    </contour>
  </outline>
</glyph>
<glyph name="plus" format="1">
  <advance width="80"/>
  <unicode hex="002B"/>
  <note>
    plus
  </note>
  <outline>
    <contour>
      <point x="40" y="0" type="line"/>
      <point x="40" y="20" type="line"/>
      <point x="60" y="20" type="line"/>
      <point x="60" y="30" type="line"/>
      <point x="40" y="30" type="line"/>
      <point x="40" y="50" type="line"/>
      <point x="30" y="50" type="line"/>
      <point x="30" y="30" type="line"/>
      <point x="10" y="30" type="line"/>
      <point x="10" y="20" type="line"/>
      <point x="30" y="20" type="line"/>
      <point x="30" y="0" type="line"/>
    </contour>
  </outline>
</glyph>
<glyph name="comma" format="1">
  <advance width="80"/>
  <unicode hex="002C"/>
  <note>
    comma
  </note>
  <outline>
    <contour>
      <point x="30" y="0" type="line"/>
      <point x="30" y="30" type="line"/>
      <point x="10" y="30" type="line"/>
      <point x="10" y="10" type="line"/>
      <point x="20" y="10" type="line"/>
      <point x="20" y="0" type="line"/>
    </contour>
    <contour>
      <point x="20" y="-10" type="line"/>
      <point x="20" y="0" type="line"/>
      <point x="10" y="0" type="line"/>
      <point x="10" y="-10" type="line"/>
    </contour>
  </outline>
</glyph>
<glyph name="hyphen" format="1">
  <advance width="80"/>
  <unicode hex="002D"/>
  <note>
    hyphen
  </note>
  <outline>
    <contour>
      <point x="70" y="20" type="line"/>
      <point x="70" y="30" type="line"/>
      <point x="10" y="30" type="line"/>
      <point x="10" y="20" type="line"/>
    </contour>
  </outline>
</glyph>
<glyph name="period" format="1">
  <advance width="80"/>
  <unicode hex="002E"/>
  <note>
    period
  </note>
  <outline>
    <contour>
      <point x="30" y="0" type="line"/>
      <point x="30" y="20" type="line"/>
      <point x="10" y="20" type="line"/>
      <point x="10" y="0" type="line"/>
    </contour>
  </outline>
</glyph>
<glyph name="one" format="1">
  <advance width="80"/>
  <unicode hex="0031"/>
  <note>
    one
  </note>
  <outline>
    <contour>
      <point x="70" y="0" type="line"/>
      <point x="70" y="10" type="line"/>
      <point x="50" y="10" type="line"/>
      <point x="50" y="60" type="line"/>
      <point x="30" y="60" type="line"/>
      <point x="30" y="50" type="line"/>
      <point x="20" y="50" type="line"/>
      <point x="20" y="40" type="line"/>
      <point x="30" y="40" type="line"/>
      <point x="30" y="10" type="line"/>
      <point x="10" y="10" type="line"/>
      <point x="10" y="0" type="line"/>
    </contour>
  </outline>
</glyph>
<glyph name="seven" format="1">
  <advance width="80"/>
  <unicode hex="0037"/>
  <note>
    seven
  </note>
  <outline>
    <contour>
      <point x="50" y="0" type="line"/>
      <point x="50" y="20" type="line"/>
      <point x="60" y="20" type="line"/>
      <point x="60" y="30" type="line"/>
      <point x="70" y="30" type="line"/>
      <point x="70" y="40" type="line"/>
      <point x="80" y="40" type="line"/>
      <point x="80" y="60" type="line"/>
      <point x="10" y="60" type="line"/>
      <point x="10" y="40" type="line"/>
      <point x="30" y="40" type="line"/>
      <point x="30" y="50" type="line"/>
      <point x="60" y="50" type="line"/>
      <point x="60" y="40" type="line"/>
      <point x="50" y="40" type="line"/>
      <point x="50" y="30" type="line"/>
      <point x="40" y="30" type="line"/>
      <point x="40" y="20" type="line"/>
      <point x="30" y="20" type="line"/>
      <point x="30" y="0" type="line"/>
    </contour>
  </outline>
</glyph>
<glyph name="eight" format="1">
  <advance width="80"/>
  <unicode hex="0038"/>
  <note>
    eight
  </note>
  <outline>
    <contour>
      <point x="70" y="0" type="line"/>
      <point x="70" y="10" type="line"/>
      <point x="80" y="10" type="line"/>
      <point x="80" y="30" type="line"/>
      <point x="70" y="30" type="line"/>
      <point x="70" y="40" type="line"/>
      <point x="80" y="40" type="line"/>
      <point x="80" y="50" type="line"/>
      <point x="70" y="50" type="line"/>
      <point x="70" y="60" type="line"/>
      <point x="20" y="60" type="line"/>
      <point x="20" y="50" type="line"/>
      <point x="10" y="50" type="line"/>
      <point x="10" y="40" type="line"/>
      <point x="20" y="40" type="line"/>
      <point x="20" y="30" type="line"/>
      <point x="10" y="30" type="line"/>
      <point x="10" y="10" type="line"/>
      <point x="20" y="10" type="line"/>
      <point x="20" y="0" type="line"/>
    </contour>
    <contour>
      <point x="30" y="30" type="line"/>
      <point x="60" y="30" type="line"/>
      <point x="60" y="10" type="line"/>
      <point x="30" y="10" type="line"/>
    </contour>
    <contour>
      <point x="30" y="50" type="line"/>
      <point x="60" y="50" type="line"/>
      <point x="60" y="40" type="line"/>
      <point x="30" y="40" type="line"/>
    </contour>
  </outline>
</glyph>
<glyph name="colon" format="1">
  <advance width="80"/>
  <unicode hex="003A"/>
  <note>
    colon
  </note>
  <outline>
    <contour>
      <point x="50" y="40" type="line"/>
      <point x="50" y="60" type="line"/>
      <point x="30" y="60" type="line"/>
      <point x="30" y="40" type="line"/>
    </contour>
    <contour>
      <point x="50" y="0" type="line"/>
      <point x="50" y="20" type="line"/>
      <point x="30" y="20" type="line"/>
      <point x="30" y="0" type="line"/>
    </contour>
  </outline>
</glyph>
<glyph name="F" format="1">
  <advance width="80"/>
  <unicode hex="0046"/>
  <note>
    F
  </note>
  <outline>
    <contour>
      <point x="10" y="0" type="line"/>
      <point x="10" y="30" type="line"/>
      <point x="60" y="30" type="line"/>
      <point x="60" y="40" type="line"/>
      <point x="10" y="40" type="line"/>
      <point x="10" y="60" type="line"/>
      <point x="70" y="60" type="line"/>
      <point x="70" y="70" type="line"/>
      <point x="0" y="70" type="line"/>
      <point x="0" y="0" type="line"/>
    </contour>
  </outline>
</glyph>
<glyph name="I" format="1">
  <advance width="80"/>
  <unicode hex="0049"/>
  <note>
    I
  </note>
  <outline>
    <contour>
      <point x="50" y="0" type="line"/>
      <point x="50" y="10" type="line"/>
      <point x="30" y="10" type="line"/>
      <point x="30" y="60" type="line"/>
      <point x="50" y="60" type="line"/>
      <point x="50" y="70" type="line"/>
      <point x="0" y="70" type="line"/>
      <point x="0" y="60" type="line"/>
      <point x="20" y="60" type="line"/>
      <point x="20" y="10" type="line"/>
      <point x="0" y="10" type="line"/>
      <point x="0" y="0" type="line"/>
    </contour>
  </outline>
</glyph>
<glyph name="J" format="1">
  <advance width="80"/>
  <unicode hex="004A"/>
  <note>
    J
  </note>
  <outline>
    <contour>
      <point x="50" y="10" type="line"/>
      <point x="50" y="60" type="line"/>
      <point x="70" y="60" type="line"/>
      <point x="70" y="70" type="line"/>
      <point x="10" y="70" type="line"/>
      <point x="10" y="60" type="line"/>
      <point x="40" y="60" type="line"/>
      <point x="40" y="10" type="line"/>
    </contour>
    <contour>
      <point x="10" y="10" type="line"/>
      <point x="10" y="30" type="line"/>
      <point x="0" y="30" type="line"/>
      <point x="0" y="10" type="line"/>
    </contour>
    <contour>
      <point x="40" y="0" type="line"/>
      <point x="40" y="10" type="line"/>
      <point x="10" y="10" type="line"/>
      <point x="10" y="0" type="line"/>
    </contour>
  </outline>
</glyph>
<glyph name="L" format="1">
  <advance width="80"/>
  <unicode hex="004C"/>
  <note>
    L
  </note>
  <outline>
    <contour>
      <point x="70" y="0" type="line"/>
      <point x="70" y="10" type="line"/>
      <point x="10" y="10" type="line"/>
      <point x="10" y="70" type="line"/>
      <point x="0" y="70" type="line"/>
      <point x="0" y="0" type="line"/>
    </contour>
  </outline>
</glyph>
<glyph name="P" format="1">
  <advance width="80"/>
  <unicode hex="0050"/>
  <note>
    P
  </note>
  <outline>
    <contour>
      <point x="10" y="0" type="line"/>
      <point x="10" y="30" type="line"/>
      <point x="60" y="30" type="line"/>
      <point x="60" y="40" type="line"/>
      <point x="10" y="40" type="line"/>
      <point x="10" y="60" type="line"/>
      <point x="60" y="60" type="line"/>
      <point x="60" y="70" type="line"/>
      <point x="0" y="70" type="line"/>
      <point x="0" y="0" type="line"/>
    </contour>
    <contour>
      <point x="70" y="40" type="line"/>
      <point x="70" y="60" type="line"/>
      <point x="60" y="60" type="line"/>
      <point x="60" y="40" type="line"/>
    </contour>
  </outline>
</glyph>
<glyph name="Q" format="1">
  <advance width="80"/>
  <unicode hex="0051"/>
  <note>
    Q
  </note>
  <outline>
    <contour>
      <point x="70" y="20" type="line"/>
      <point x="70" y="50" type="line"/>
      <point x="60" y="50" type="line"/>
      <point x="60" y="20" type="line"/>
    </contour>
    <contour>
      <point x="20" y="10" type="line"/>
      <point x="20" y="20" type="line"/>
      <point x="10" y="20" type="line"/>
      <point x="10" y="10" type="line"/>
    </contour>
    <contour>
      <point x="10" y="20" type="line"/>
      <point x="10" y="50" type="line"/>
      <point x="0" y="50" type="line"/>
      <point x="0" y="20" type="line"/>
    </contour>
    <contour>
      <point x="50" y="0" type="line"/>
      <point x="50" y="10" type="line"/>
      <point x="20" y="10" type="line"/>
      <point x="20" y="0" type="line"/>
    </contour>
    <contour>
      <point x="20" y="50" type="line"/>
      <point x="20" y="60" type="line"/>
      <point x="10" y="60" type="line"/>
      <point x="10" y="50" type="line"/>
    </contour>
    <contour>
      <point x="50" y="20" type="line"/>
      <point x="50" y="30" type="line"/>
      <point x="40" y="30" type="line"/>
      <point x="40" y="20" type="line"/>
    </contour>
    <contour>
      <point x="60" y="10" type="line"/>
      <point x="60" y="20" type="line"/>
      <point x="50" y="20" type="line"/>
      <point x="50" y="10" type="line"/>
    </contour>
    <contour>
      <point x="70" y="0" type="line"/>
      <point x="70" y="10" type="line"/>
      <point x="60" y="10" type="line"/>
      <point x="60" y="0" type="line"/>
    </contour>
    <contour>
      <point x="50" y="60" type="line"/>
      <point x="50" y="70" type="line"/>
      <point x="20" y="70" type="line"/>
      <point x="20" y="60" type="line"/>
    </contour>
    <contour>
      <point x="60" y="50" type="line"/>
      <point x="60" y="60" type="line"/>
      <point x="50" y="60" type="line"/>
      <point x="50" y="50" type="line"/>
    </contour>
  </outline>
</glyph>
<glyph name="V" format="1">
  <advance width="80"/>
  <unicode hex="0056"/>
  <note>
    g45
  </note>
  <outline>
    <contour>
      <point x="70" y="50" type="line"/>
      <point x="70" y="70" type="line"/>
      <point x="60" y="70" type="line"/>
      <point x="60" y="50" type="line"/>
    </contour>
    <contour>
      <point x="40" y="0" type="line"/>
      <point x="40" y="10" type="line"/>
      <point x="30" y="10" type="line"/>
      <point x="30" y="0" type="line"/>
    </contour>
    <contour>
      <point x="30" y="10" type="line"/>
      <point x="30" y="30" type="line"/>
      <point x="20" y="30" type="line"/>
      <point x="20" y="10" type="line"/>
    </contour>
    <contour>
      <point x="20" y="30" type="line"/>
      <point x="20" y="50" type="line"/>
      <point x="10" y="50" type="line"/>
      <point x="10" y="30" type="line"/>
    </contour>
    <contour>
      <point x="10" y="50" type="line"/>
      <point x="10" y="70" type="line"/>
      <point x="0" y="70" type="line"/>
      <point x="0" y="50" type="line"/>
    </contour>
    <contour>
      <point x="50" y="10" type="line"/>
      <point x="50" y="30" type="line"/>
      <point x="40" y="30" type="line"/>
      <point x="40" y="10" type="line"/>
    </contour>
    <contour>
      <point x="60" y="30" type="line"/>
      <point x="60" y="50" type="line"/>
      <point x="50" y="50" type="line"/>
      <point x="50" y="30" type="line"/>
    </contour>
  </outline>
</glyph>
<glyph name="bracketleft" format="1">
  <advance width="80"/>
  <unicode hex="005B"/>
  <note>
    bracketleft
  </note>
  <outline>
    <contour>
      <point x="80" y="0" type="line"/>
      <point x="80" y="10" type="line"/>
      <point x="60" y="10" type="line"/>
      <point x="60" y="60" type="line"/>
      <point x="80" y="60" type="line"/>
      <point x="80" y="70" type="line"/>
      <point x="50" y="70" type="line"/>
      <point x="50" y="0" type="line"/>
    </contour>
  </outline>
</glyph>
<glyph name="bracketright" format="1">
  <advance width="80"/>
  <unicode hex="005D"/>
  <note>
    bracketright
  </note>
  <outline>
    <contour>
      <point x="30" y="0" type="line"/>
      <point x="30" y="70" type="line"/>
      <point x="0" y="70" type="line"/>
      <point x="0" y="60" type="line"/>
      <point x="20" y="60" type="line"/>
      <point x="20" y="10" type="line"/>
      <point x="0" y="10" type="line"/>
      <point x="0" y="0" type="line"/>
    </contour>
  </outline>
</glyph>
<glyph name="asciicircum" format="1">
  <advance width="320"/>
  <unicode hex="005E"/>
  <outline>
    <contour>
      <point x="119" y="362" type="line"/>
      <point x="119" y="402" type="line"/>
      <point x="79" y="402" type="line"/>
      <point x="79" y="362" type="line"/>
    </contour>
    <contour>
      <point x="39" y="282" type="line"/>
      <point x="39" y="322" type="line"/>
      <point x="-1" y="322" type="line"/>
      <point x="-1" y="282" type="line"/>
    </contour>
    <contour>
      <point x="79" y="322" type="line"/>
      <point x="79" y="362" type="line"/>
      <point x="39" y="362" type="line"/>
      <point x="39" y="322" type="line"/>
    </contour>
    <contour>
      <point x="199" y="282" type="line"/>
      <point x="199" y="322" type="line"/>
      <point x="159" y="322" type="line"/>
      <point x="159" y="282" type="line"/>
    </contour>
    <contour>
      <point x="159" y="322" type="line"/>
      <point x="159" y="362" type="line"/>
      <point x="119" y="362" type="line"/>
      <point x="119" y="322" type="line"/>
    </contour>
  </outline>
</glyph>
<glyph name="underscore" format="1">
  <advance width="80"/>
  <unicode hex="005F"/>
  <note>
    hyphen
  </note>
  <outline>
    <contour>
      <point x="70" y="-10" type="line"/>
      <point x="70" y="0" type="line"/>
      <point x="10" y="0" type="line"/>
      <point x="10" y="-10" type="line"/>
    </contour>
  </outline>
</glyph>
<glyph name="f" format="1">
  <advance width="80"/>
  <unicode hex="0066"/>
  <note>
    f
  </note>
  <outline>
    <contour>
      <point x="40" y="0" type="line"/>
      <point x="40" y="30" type="line"/>
      <point x="70" y="30" type="line"/>
      <point x="70" y="40" type="line"/>
      <point x="40" y="40" type="line"/>
      <point x="40" y="60" type="line"/>
      <point x="30" y="60" type="line"/>
      <point x="30" y="40" type="line"/>
      <point x="10" y="40" type="line"/>
      <point x="10" y="30" type="line"/>
      <point x="30" y="30" type="line"/>
      <point x="30" y="0" type="line"/>
    </contour>
    <contour>
      <point x="60" y="60" type="line"/>
      <point x="60" y="70" type="line"/>
      <point x="40" y="70" type="line"/>
      <point x="40" y="60" type="line"/>
    </contour>
    <contour>
      <point x="70" y="50" type="line"/>
      <point x="70" y="60" type="line"/>
      <point x="60" y="60" type="line"/>
      <point x="60" y="50" type="line"/>
    </contour>
  </outline>
</glyph>
<glyph name="j" format="1">
  <advance width="80"/>
  <unicode hex="006A"/>
  <note>
    j
  </note>
  <outline>
    <contour>
      <point x="50" y="0" type="line"/>
      <point x="50" y="40" type="line"/>
      <point x="40" y="40" type="line"/>
      <point x="40" y="0" type="line"/>
    </contour>
    <contour>
      <point x="40" y="-10" type="line"/>
      <point x="40" y="0" type="line"/>
      <point x="20" y="0" type="line"/>
      <point x="20" y="-10" type="line"/>
    </contour>
    <contour>
      <point x="50" y="50" type="line"/>
      <point x="50" y="60" type="line"/>
      <point x="40" y="60" type="line"/>
      <point x="40" y="50" type="line"/>
    </contour>
  </outline>
</glyph>
<glyph name="l" format="1">
  <advance width="80"/>
  <unicode hex="006C"/>
  <note>
    l
  </note>
  <outline>
    <contour>
      <point x="40" y="0" type="line"/>
      <point x="40" y="70" type="line"/>
      <point x="30" y="70" type="line"/>
      <point x="30" y="0" type="line"/>
    </contour>
  </outline>
</glyph>
<glyph name="m" format="1">
  <advance width="80"/>
  <unicode hex="006D"/>
  <note>
    m
  </note>
  <outline>
    <contour>
      <point x="20" y="0" type="line"/>
      <point x="20" y="40" type="line"/>
      <point x="40" y="40" type="line"/>
      <point x="40" y="50" type="line"/>
      <point x="10" y="50" type="line"/>
      <point x="10" y="0" type="line"/>
    </contour>
    <contour>
      <point x="50" y="0" type="line"/>
      <point x="50" y="40" type="line"/>
      <point x="40" y="40" type="line"/>
      <point x="40" y="0" type="line"/>
    </contour>
    <contour>
      <point x="80" y="0" type="line"/>
      <point x="80" y="40" type="line"/>
      <point x="70" y="40" type="line"/>
      <point x="70" y="0" type="line"/>
    </contour>
    <contour>
      <point x="70" y="40" type="line"/>
      <point x="70" y="50" type="line"/>
      <point x="50" y="50" type="line"/>
      <point x="50" y="40" type="line"/>
    </contour>
  </outline>
</glyph>
<glyph name="n" format="1">
  <advance width="80"/>
  <unicode hex="006E"/>
  <note>
    n
  </note>
  <outline>
    <contour>
      <point x="20" y="0" type="line"/>
      <point x="20" y="40" type="line"/>
      <point x="50" y="40" type="line"/>
      <point x="50" y="50" type="line"/>
      <point x="10" y="50" type="line"/>
      <point x="10" y="0" type="line"/>
    </contour>
    <contour>
      <point x="60" y="0" type="line"/>
      <point x="60" y="40" type="line"/>
      <point x="50" y="40" type="line"/>
      <point x="50" y="0" type="line"/>
    </contour>
  </outline>
</glyph>
<glyph name="p" format="1">
  <advance width="80"/>
  <unicode hex="0070"/>
  <note>
    p
  </note>
  <outline>
    <contour>
      <point x="20" y="-10" type="line"/>
      <point x="20" y="10" type="line"/>
      <point x="60" y="10" type="line"/>
      <point x="60" y="20" type="line"/>
      <point x="20" y="20" type="line"/>
      <point x="20" y="40" type="line"/>
      <point x="60" y="40" type="line"/>
      <point x="60" y="50" type="line"/>
      <point x="10" y="50" type="line"/>
      <point x="10" y="-10" type="line"/>
    </contour>
    <contour>
      <point x="70" y="20" type="line"/>
      <point x="70" y="40" type="line"/>
      <point x="60" y="40" type="line"/>
      <point x="60" y="20" type="line"/>
    </contour>
  </outline>
</glyph>
<glyph name="q" format="1">
  <advance width="80"/>
  <unicode hex="0071"/>
  <note>
    q
  </note>
  <outline>
    <contour>
      <point x="70" y="-10" type="line"/>
      <point x="70" y="50" type="line"/>
      <point x="20" y="50" type="line"/>
      <point x="20" y="40" type="line"/>
      <point x="60" y="40" type="line"/>
      <point x="60" y="20" type="line"/>
      <point x="20" y="20" type="line"/>
      <point x="20" y="10" type="line"/>
      <point x="60" y="10" type="line"/>
      <point x="60" y="-10" type="line"/>
    </contour>
    <contour>
      <point x="20" y="20" type="line"/>
      <point x="20" y="40" type="line"/>
      <point x="10" y="40" type="line"/>
      <point x="10" y="20" type="line"/>
    </contour>
  </outline>
</glyph>
<glyph name="t" format="1">
  <advance width="80"/>
  <unicode hex="0074"/>
  <note>
    t
  </note>
  <outline>
    <contour>
      <point x="40" y="10" type="line"/>
      <point x="40" y="40" type="line"/>
      <point x="60" y="40" type="line"/>
      <point x="60" y="50" type="line"/>
      <point x="40" y="50" type="line"/>
      <point x="40" y="60" type="line"/>
      <point x="30" y="60" type="line"/>
      <point x="30" y="50" type="line"/>
      <point x="10" y="50" type="line"/>
      <point x="10" y="40" type="line"/>
      <point x="30" y="40" type="line"/>
      <point x="30" y="10" type="line"/>
    </contour>
    <contour>
      <point x="60" y="0" type="line"/>
      <point x="60" y="10" type="line"/>
      <point x="40" y="10" type="line"/>
      <point x="40" y="0" type="line"/>
    </contour>
  </outline>
</glyph>
<glyph name="v" format="1">
  <advance width="80"/>
  <unicode hex="0076"/>
  <note>
    v
  </note>
  <outline>
    <contour>
      <point x="60" y="20" type="line"/>
      <point x="60" y="50" type="line"/>
      <point x="50" y="50" type="line"/>
      <point x="50" y="20" type="line"/>
    </contour>
    <contour>
      <point x="30" y="10" type="line"/>
      <point x="30" y="20" type="line"/>
      <point x="20" y="20" type="line"/>
      <point x="20" y="10" type="line"/>
    </contour>
    <contour>
      <point x="40" y="0" type="line"/>
      <point x="40" y="10" type="line"/>
      <point x="30" y="10" type="line"/>
      <point x="30" y="0" type="line"/>
    </contour>
    <contour>
      <point x="20" y="20" type="line"/>
      <point x="20" y="50" type="line"/>
      <point x="10" y="50" type="line"/>
      <point x="10" y="20" type="line"/>
    </contour>
    <contour>
      <point x="50" y="10" type="line"/>
      <point x="50" y="20" type="line"/>
      <point x="40" y="20" type="line"/>
      <point x="40" y="10" type="line"/>
    </contour>
  </outline>
</glyph>
<glyph name="y" format="1">
  <advance width="80"/>
  <unicode hex="0079"/>
  <note>
    y
  </note>
  <outline>
    <contour>
      <point x="60" y="0" type="line"/>
      <point x="60" y="50" type="line"/>
      <point x="50" y="50" type="line"/>
      <point x="50" y="20" type="line"/>
      <point x="20" y="20" type="line"/>
      <point x="20" y="10" type="line"/>
      <point x="50" y="10" type="line"/>
      <point x="50" y="0" type="line"/>
    </contour>
    <contour>
      <point x="50" y="-10" type="line"/>
      <point x="50" y="0" type="line"/>
      <point x="10" y="0" type="line"/>
      <point x="10" y="-10" type="line"/>
    </contour>
    <contour>
      <point x="20" y="20" type="line"/>
      <point x="20" y="50" type="line"/>
      <point x="10" y="50" type="line"/>
      <point x="10" y="20" type="line"/>
    </contour>
  </outline>
</glyph>
<glyph name="asciitilde" format="1">
  <advance width="80"/>
  <unicode hex="007E"/>
  <outline>
    <contour>
      <point x="60" y="50" type="line"/>
      <point x="60" y="60" type="line"/>
      <point x="40" y="60" type="line"/>
      <point x="40" y="50" type="line"/>
    </contour>
    <contour>
      <point x="20" y="50" type="line"/>
      <point x="20" y="60" type="line"/>
      <point x="10" y="60" type="line"/>
      <point x="10" y="50" type="line"/>
    </contour>
    <contour>
      <point x="40" y="60" type="line"/>
      <point x="40" y="70" type="line"/>
      <point x="20" y="70" type="line"/>
      <point x="20" y="60" type="line"/>
    </contour>
    <contour>
      <point x="70" y="60" type="line"/>
      <point x="70" y="70" type="line"/>
      <point x="60" y="70" type="line"/>
      <point x="60" y="60" type="line"/>
    </contour>
  </outline>
</glyph>
<glyph name="exclamdown" format="1">
  <advance width="80"/>
  <unicode hex="00A1"/>
  <note>
    exclamdown
  </note>
  <outline>
    <contour>
      <point x="50" y="-10" type="line"/>
      <point x="50" y="0" type="line"/>
      <point x="60" y="0" type="line"/>
      <point x="60" y="30" type="line"/>
      <point x="50" y="30" type="line"/>
      <point x="50" y="40" type="line"/>
      <point x="30" y="40" type="line"/>
      <point x="30" y="30" type="line"/>
      <point x="20" y="30" type="line"/>
      <point x="20" y="0" type="line"/>
      <point x="30" y="0" type="line"/>
      <point x="30" y="-10" type="line"/>
    </contour>
    <contour>
      <point x="50" y="50" type="line"/>
      <point x="50" y="70" type="line"/>
      <point x="30" y="70" type="line"/>
      <point x="30" y="50" type="line"/>
    </contour>
  </outline>
</glyph>
<glyph name="questiondown" format="1">
  <advance width="80"/>
  <unicode hex="00BF"/>
  <note>
    questiondown
  </note>
  <outline>
    <contour>
      <point x="70" y="0" type="line"/>
      <point x="70" y="20" type="line"/>
      <point x="80" y="20" type="line"/>
      <point x="80" y="30" type="line"/>
      <point x="60" y="30" type="line"/>
      <point x="60" y="20" type="line"/>
      <point x="50" y="20" type="line"/>
      <point x="50" y="10" type="line"/>
      <point x="30" y="10" type="line"/>
      <point x="30" y="30" type="line"/>
      <point x="10" y="30" type="line"/>
      <point x="10" y="20" type="line"/>
      <point x="0" y="20" type="line"/>
      <point x="0" y="10" type="line"/>
      <point x="10" y="10" type="line"/>
      <point x="10" y="0" type="line"/>
    </contour>
    <contour>
      <point x="50" y="30" type="line"/>
      <point x="50" y="40" type="line"/>
      <point x="30" y="40" type="line"/>
      <point x="30" y="30" type="line"/>
    </contour>
    <contour>
      <point x="50" y="50" type="line"/>
      <point x="50" y="70" type="line"/>
      <point x="30" y="70" type="line"/>
      <point x="30" y="50" type="line"/>
    </contour>
  </outline>
</glyph>
<glyph name="Ccedilla" format="1">
  <advance width="80"/>
  <unicode hex="00C7"/>
  <outline>
    <contour>
      <point x="60" y="60" type="line"/>
      <point x="60" y="70" type="line"/>
      <point x="20" y="70" type="line"/>
      <point x="20" y="60" type="line"/>
    </contour>
    <contour>
      <point x="20" y="20" type="line"/>
      <point x="20" y="30" type="line"/>
      <point x="10" y="30" type="line"/>
      <point x="10" y="20" type="line"/>
    </contour>
    <contour>
      <point x="10" y="30" type="line"/>
      <point x="10" y="50" type="line"/>
      <point x="0" y="50" type="line"/>
      <point x="0" y="30" type="line"/>
    </contour>
    <contour>
      <point x="60" y="10" type="line"/>
      <point x="60" y="20" type="line"/>
      <point x="20" y="20" type="line"/>
      <point x="20" y="10" type="line"/>
    </contour>
    <contour>
      <point x="20" y="50" type="line"/>
      <point x="20" y="60" type="line"/>
      <point x="10" y="60" type="line"/>
      <point x="10" y="50" type="line"/>
    </contour>
    <contour>
      <point x="70" y="20" type="line"/>
      <point x="70" y="30" type="line"/>
      <point x="60" y="30" type="line"/>
      <point x="60" y="20" type="line"/>
    </contour>
    <contour>
      <point x="70" y="50" type="line"/>
      <point x="70" y="60" type="line"/>
      <point x="60" y="60" type="line"/>
      <point x="60" y="50" type="line"/>
    </contour>
    <component base="cedillacomb"/>
    <component base="cedillacomb"/>
  </outline>
</glyph>
<glyph name="Edieresis" format="1">
  <advance width="80"/>
  <unicode hex="00CB"/>
  <outline>
    <contour>
      <point x="70" y="0" type="line"/>
      <point x="70" y="10" type="line"/>
      <point x="10" y="10" type="line"/>
      <point x="10" y="20" type="line"/>
      <point x="60" y="20" type="line"/>
      <point x="60" y="30" type="line"/>
      <point x="10" y="30" type="line"/>
      <point x="10" y="40" type="line"/>
      <point x="70" y="40" type="line"/>
      <point x="70" y="50" type="line"/>
      <point x="0" y="50" type="line"/>
      <point x="0" y="0" type="line"/>
    </contour>
    <component base="dieresiscomb"/>
  </outline>
</glyph>
<glyph name="Iacute" format="1">
  <advance width="80"/>
  <unicode hex="00CD"/>
  <note>
    Iacute
  </note>
  <outline>
    <contour>
      <point x="50" y="0" type="line"/>
      <point x="50" y="10" type="line"/>
      <point x="30" y="10" type="line"/>
      <point x="30" y="40" type="line"/>
      <point x="50" y="40" type="line"/>
      <point x="50" y="50" type="line"/>
      <point x="20" y="50" type="line"/>
      <point x="20" y="60" type="line"/>
      <point x="10" y="60" type="line"/>
      <point x="10" y="50" type="line"/>
      <point x="0" y="50" type="line"/>
      <point x="0" y="40" type="line"/>
      <point x="20" y="40" type="line"/>
      <point x="20" y="10" type="line"/>
      <point x="0" y="10" type="line"/>
      <point x="0" y="0" type="line"/>
    </contour>
    <contour>
      <point x="30" y="60" type="line"/>
      <point x="30" y="70" type="line"/>
      <point x="20" y="70" type="line"/>
      <point x="20" y="60" type="line"/>
    </contour>
  </outline>
</glyph>
<glyph name="Icircumflex" format="1">
  <advance width="80"/>
  <unicode hex="00CE"/>
  <outline>
    <contour>
      <point x="50" y="0" type="line"/>
      <point x="50" y="10" type="line"/>
      <point x="30" y="10" type="line"/>
      <point x="30" y="40" type="line"/>
      <point x="50" y="40" type="line"/>
      <point x="50" y="50" type="line"/>
      <point x="0" y="50" type="line"/>
      <point x="0" y="40" type="line"/>
      <point x="20" y="40" type="line"/>
      <point x="20" y="10" type="line"/>
      <point x="0" y="10" type="line"/>
      <point x="0" y="0" type="line"/>
    </contour>
    <component base="circumflexcomb" xOffset="-10"/>
  </outline>
</glyph>
<glyph name="Otilde" format="1">
  <advance width="80"/>
  <unicode hex="00D5"/>
  <outline>
    <contour>
      <point x="60" y="40" type="line"/>
      <point x="60" y="50" type="line"/>
      <point x="10" y="50" type="line"/>
      <point x="10" y="40" type="line"/>
    </contour>
    <contour>
      <point x="10" y="10" type="line"/>
      <point x="10" y="40" type="line"/>
      <point x="0" y="40" type="line"/>
      <point x="0" y="10" type="line"/>
    </contour>
    <contour>
      <point x="60" y="0" type="line"/>
      <point x="60" y="10" type="line"/>
      <point x="10" y="10" type="line"/>
      <point x="10" y="0" type="line"/>
    </contour>
    <contour>
      <point x="70" y="10" type="line"/>
      <point x="70" y="40" type="line"/>
      <point x="60" y="40" type="line"/>
      <point x="60" y="10" type="line"/>
    </contour>
    <component base="tildecomb"/>
  </outline>
</glyph>
<glyph name="Thorn" format="1">
  <advance width="80"/>
  <unicode hex="00DE"/>
  <outline>
    <contour>
      <point x="10" y="0" type="line"/>
      <point x="10" y="20" type="line"/>
      <point x="60" y="20" type="line"/>
      <point x="60" y="30" type="line"/>
      <point x="10" y="30" type="line"/>
      <point x="10" y="50" type="line"/>
      <point x="60" y="50" type="line"/>
      <point x="60" y="60" type="line"/>
      <point x="10" y="60" type="line"/>
      <point x="10" y="70" type="line"/>
      <point x="0" y="70" type="line"/>
      <point x="0" y="0" type="line"/>
    </contour>
    <contour>
      <point x="70" y="30" type="line"/>
      <point x="70" y="50" type="line"/>
      <point x="60" y="50" type="line"/>
      <point x="60" y="30" type="line"/>
    </contour>
  </outline>
</glyph>
<glyph name="igrave" format="1">
  <advance width="80"/>
  <unicode hex="00EC"/>
  <note>
    igrave
  </note>
  <outline>
    <contour>
      <point x="40" y="0" type="line"/>
      <point x="40" y="40" type="line"/>
      <point x="30" y="40" type="line"/>
      <point x="30" y="0" type="line"/>
    </contour>
    <contour>
      <point x="30" y="60" type="line"/>
      <point x="30" y="70" type="line"/>
      <point x="20" y="70" type="line"/>
      <point x="20" y="60" type="line"/>
    </contour>
    <contour>
      <point x="40" y="50" type="line"/>
      <point x="40" y="60" type="line"/>
      <point x="30" y="60" type="line"/>
      <point x="30" y="50" type="line"/>
    </contour>
  </outline>
</glyph>
<glyph name="iacute" format="1">
  <advance width="80"/>
  <unicode hex="00ED"/>
  <note>
    iacute
  </note>
  <outline>
    <contour>
      <point x="40" y="0" type="line"/>
      <point x="40" y="40" type="line"/>
      <point x="30" y="40" type="line"/>
      <point x="30" y="0" type="line"/>
    </contour>
    <contour>
      <point x="40" y="50" type="line"/>
      <point x="40" y="60" type="line"/>
      <point x="30" y="60" type="line"/>
      <point x="30" y="50" type="line"/>
    </contour>
    <contour>
      <point x="50" y="60" type="line"/>
      <point x="50" y="70" type="line"/>
      <point x="40" y="70" type="line"/>
      <point x="40" y="60" type="line"/>
    </contour>
  </outline>
</glyph>
<glyph name="thorn" format="1">
  <advance width="80"/>
  <unicode hex="00FE"/>
  <outline>
    <contour>
      <point x="20" y="-10" type="line"/>
      <point x="20" y="10" type="line"/>
      <point x="60" y="10" type="line"/>
      <point x="60" y="20" type="line"/>
      <point x="20" y="20" type="line"/>
      <point x="20" y="40" type="line"/>
      <point x="60" y="40" type="line"/>
      <point x="60" y="50" type="line"/>
      <point x="20" y="50" type="line"/>
      <point x="20" y="70" type="line"/>
      <point x="10" y="70" type="line"/>
      <point x="10" y="-10" type="line"/>
    </contour>
    <contour>
      <point x="70" y="20" type="line"/>
      <point x="70" y="40" type="line"/>
      <point x="60" y="40" type="line"/>
      <point x="60" y="20" type="line"/>
    </contour>
  </outline>
</glyph>
<glyph name="acutecomb" format="1">
  <advance width="80"/>
  <unicode hex="0301"/>
  <outline>
    <contour>
      <point x="50" y="60" type="line"/>
      <point x="50" y="70" type="line"/>
      <point x="40" y="70" type="line"/>
      <point x="40" y="60" type="line"/>
    </contour>
    <contour>
      <point x="40" y="50" type="line"/>
      <point x="40" y="60" type="line"/>
      <point x="30" y="60" type="line"/>
      <point x="30" y="50" type="line"/>
    </contour>
  </outline>
</glyph>
<glyph name="tildecomb" format="1">
  <advance width="320"/>
  <unicode hex="0303"/>
  <outline>
    <contour>
      <point x="240" y="200" type="line"/>
      <point x="240" y="240" type="line"/>
      <point x="160" y="240" type="line"/>
      <point x="160" y="200" type="line"/>
    </contour>
    <contour>
      <point x="80" y="200" type="line"/>
      <point x="80" y="240" type="line"/>
      <point x="40" y="240" type="line"/>
      <point x="40" y="200" type="line"/>
    </contour>
    <contour>
      <point x="160" y="240" type="line"/>
      <point x="160" y="280" type="line"/>
      <point x="80" y="280" type="line"/>
      <point x="80" y="240" type="line"/>
    </contour>
    <contour>
      <point x="280" y="240" type="line"/>
      <point x="280" y="280" type="line"/>
      <point x="240" y="280" type="line"/>
      <point x="240" y="240" type="line"/>
    </contour>
  </outline>
</glyph>
<glyph name="macroncomb" format="1">
  <advance width="80"/>
  <unicode hex="0304"/>
  <outline>
    <contour>
      <point x="61" y="60" type="line"/>
      <point x="61" y="70" type="line"/>
      <point x="10" y="70" type="line"/>
      <point x="10" y="60" type="line"/>
    </contour>
  </outline>
</glyph>
<glyph name="dotaccentcomb" format="1">
  <advance width="80"/>
  <unicode hex="0307"/>
  <outline>
    <contour>
      <point x="40" y="60" type="line"/>
      <point x="40" y="70" type="line"/>
      <point x="30" y="70" type="line"/>
      <point x="30" y="60" type="line"/>
    </contour>
  </outline>
</glyph>
<glyph name="dieresiscomb" format="1">
  <advance width="80"/>
  <unicode hex="0308"/>
  <outline>
    <contour>
      <point x="50" y="60" type="line"/>
      <point x="50" y="70" type="line"/>
      <point x="40" y="70" type="line"/>
      <point x="40" y="60" type="line"/>
    </contour>
    <contour>
      <point x="30" y="60" type="line"/>
      <point x="30" y="70" type="line"/>
      <point x="20" y="70" type="line"/>
      <point x="20" y="60" type="line"/>
    </contour>
  </outline>
</glyph>
<glyph name="commaaccentcomb" format="1">
  <advance width="320"/>
  <unicode hex="0326"/>
  <outline>
    <contour>
      <point x="200" y="-40" type="line"/>
      <point x="200" y="40" type="line"/>
      <point x="160" y="40" type="line"/>
      <point x="160" y="-40" type="line"/>
    </contour>
  </outline>
</glyph>
<glyph name="cedillacomb" format="1">
  <advance width="80"/>
  <unicode hex="0327"/>
  <outline>
    <contour>
      <point x="50" y="-10" type="line"/>
      <point x="50" y="10" type="line"/>
      <point x="40" y="10" type="line"/>
      <point x="40" y="0" type="line"/>
      <point x="30" y="0" type="line"/>
      <point x="30" y="-10" type="line"/>
    </contour>
  </outline>
</glyph>
<glyph name="ogonekcomb" format="1">
  <advance width="80"/>
  <unicode hex="0328"/>
  <outline>
    <contour>
      <point x="50" y="-10" type="line"/>
      <point x="50" y="0" type="line"/>
      <point x="40" y="0" type="line"/>
      <point x="40" y="10" type="line"/>
      <point x="30" y="10" type="line"/>
      <point x="30" y="-10" type="line"/>
    </contour>
  </outline>
</glyph>
<glyph name="strokeshortcomb" format="1">
  <advance width="80"/>
  <unicode hex="0335"/>
  <outline>
    <contour>
      <point x="40" y="30" type="line"/>
      <point x="40" y="40" type="line"/>
      <point x="0" y="40" type="line"/>
      <point x="0" y="30" type="line"/>
    </contour>
  </outline>
</glyph>
<glyph name="slashshortcomb" format="1">
  <advance width="80"/>
  <unicode hex="0337"/>
  <outline>
    <contour>
      <point x="70" y="50" type="line"/>
      <point x="70" y="60" type="line"/>
      <point x="60" y="60" type="line"/>
      <point x="60" y="50" type="line"/>
    </contour>
    <contour>
      <point x="10" y="-10" type="line"/>
      <point x="10" y="0" type="line"/>
      <point x="0" y="0" type="line"/>
      <point x="0" y="-10" type="line"/>
    </contour>
    <contour>
      <point x="20" y="0" type="line"/>
      <point x="20" y="10" type="line"/>
      <point x="10" y="10" type="line"/>
      <point x="10" y="0" type="line"/>
    </contour>
    <contour>
      <point x="30" y="10" type="line"/>
      <point x="30" y="20" type="line"/>
      <point x="20" y="20" type="line"/>
      <point x="20" y="10" type="line"/>
    </contour>
    <contour>
      <point x="40" y="20" type="line"/>
      <point x="40" y="30" type="line"/>
      <point x="30" y="30" type="line"/>
      <point x="30" y="20" type="line"/>
    </contour>
    <contour>
      <point x="50" y="30" type="line"/>
      <point x="50" y="40" type="line"/>
      <point x="40" y="40" type="line"/>
      <point x="40" y="30" type="line"/>
    </contour>
    <contour>
      <point x="60" y="40" type="line"/>
      <point x="60" y="50" type="line"/>
      <point x="50" y="50" type="line"/>
      <point x="50" y="40" type="line"/>
    </contour>
  </outline>
</glyph>
<glyph name="emdash" format="1">
  <advance width="320"/>
  <unicode hex="2014"/>
  <outline>
    <contour>
      <point x="360" y="80" type="line"/>
      <point x="360" y="120" type="line"/>
      <point x="-40" y="120" type="line"/>
      <point x="-40" y="80" type="line"/>
    </contour>
  </outline>
</glyph>
<glyph name="ellipsis" format="1">
  <advance width="80"/>
  <unicode hex="2026"/>
  <note>
    o
  </note>
  <outline>
    <contour>
      <point x="70" y="20" type="line"/>
      <point x="70" y="30" type="line"/>
      <point x="60" y="30" type="line"/>
      <point x="60" y="20" type="line"/>
    </contour>
    <contour>
      <point x="10" y="20" type="line"/>
      <point x="10" y="30" type="line"/>
      <point x="0" y="30" type="line"/>
      <point x="0" y="20" type="line"/>
    </contour>
    <contour>
      <point x="40" y="20" type="line"/>
      <point x="40" y="30" type="line"/>
      <point x="30" y="30" type="line"/>
      <point x="30" y="20" type="line"/>
    </contour>
  </outline>
</glyph>
<glyph name="trademark" format="1">
  <advance width="640"/>
  <unicode hex="2122"/>
  <outline>
    <contour>
      <point x="280" y="200" type="line"/>
      <point x="280" y="320" type="line"/>
      <point x="320" y="320" type="line"/>
      <point x="320" y="280" type="line"/>
      <point x="360" y="280" type="line"/>
      <point x="360" y="320" type="line"/>
      <point x="400" y="320" type="line"/>
      <point x="400" y="200" type="line"/>
      <point x="440" y="200" type="line"/>
      <point x="440" y="400" type="line"/>
      <point x="400" y="400" type="line"/>
      <point x="400" y="360" type="line"/>
      <point x="360" y="360" type="line"/>
      <point x="360" y="320" type="line"/>
      <point x="320" y="320" type="line"/>
      <point x="320" y="360" type="line"/>
      <point x="280" y="360" type="line"/>
      <point x="280" y="400" type="line"/>
      <point x="240" y="400" type="line"/>
      <point x="240" y="200" type="line"/>
    </contour>
    <contour>
      <point x="120" y="200" type="line"/>
      <point x="120" y="360" type="line"/>
      <point x="200" y="360" type="line"/>
      <point x="200" y="400" type="line"/>
      <point x="0" y="400" type="line"/>
      <point x="0" y="360" type="line"/>
      <point x="80" y="360" type="line"/>
      <point x="80" y="200" type="line"/>
    </contour>
  </outline>
</glyph>
<glyph name="upBlackTriangle" format="1">
  <advance width="80"/>
  <unicode hex="25B2"/>
  <note>
    triagup
  </note>
  <outline>
    <contour>
      <point x="70" y="10" type="line"/>
      <point x="70" y="30" type="line"/>
      <point x="60" y="30" type="line"/>
      <point x="60" y="40" type="line"/>
      <point x="50" y="40" type="line"/>
      <point x="50" y="50" type="line"/>
      <point x="40" y="50" type="line"/>
      <point x="40" y="60" type="line"/>
      <point x="30" y="60" type="line"/>
      <point x="30" y="50" type="line"/>
      <point x="20" y="50" type="line"/>
      <point x="20" y="40" type="line"/>
      <point x="10" y="40" type="line"/>
      <point x="10" y="30" type="line"/>
      <point x="0" y="30" type="line"/>
      <point x="0" y="10" type="line"/>
    </contour>
  </outline>
</glyph>
<glyph name="downBlackTriangle" format="1">
  <advance width="80"/>
  <unicode hex="25BC"/>
  <note>
    triagdn
  </note>
  <outline>
    <contour>
      <point x="40" y="10" type="line"/>
      <point x="40" y="20" type="line"/>
      <point x="50" y="20" type="line"/>
      <point x="50" y="30" type="line"/>
      <point x="60" y="30" type="line"/>
      <point x="60" y="40" type="line"/>
      <point x="70" y="40" type="line"/>
      <point x="70" y="60" type="line"/>
      <point x="0" y="60" type="line"/>
      <point x="0" y="40" type="line"/>
      <point x="10" y="40" type="line"/>
      <point x="10" y="30" type="line"/>
      <point x="20" y="30" type="line"/>
      <point x="20" y="20" type="line"/>
      <point x="30" y="20" type="line"/>
      <point x="30" y="10" type="line"/>
    </contour>
  </outline>
</glyph>
<glyph name="period-han" format="1">
  <advance width="80"/>
  <unicode hex="3002"/>
  <note>
    q
  </note>
  <outline>
    <contour>
      <point x="40" y="0" type="line"/>
      <point x="40" y="30" type="line"/>
      <point x="10" y="30" type="line"/>
      <point x="10" y="0" type="line"/>
    </contour>
    <contour>
      <point x="20" y="20" type="line"/>
      <point x="30" y="20" type="line"/>
      <point x="30" y="10" type="line"/>
      <point x="20" y="10" type="line"/>
    </contour>
  </outline>
</glyph>
<glyph name="esmall-hira" format="1">
  <advance width="80"/>
  <unicode hex="3047"/>
  <note>
    less
  </note>
  <outline>
    <contour>
      <point x="30" y="0" type="line"/>
      <point x="30" y="20" type="line"/>
      <point x="40" y="20" type="line"/>
      <point x="40" y="30" type="line"/>
      <point x="0" y="30" type="line"/>
      <point x="0" y="20" type="line"/>
      <point x="20" y="20" type="line"/>
      <point x="20" y="10" type="line"/>
      <point x="10" y="10" type="line"/>
      <point x="10" y="0" type="line"/>
    </contour>
    <contour>
      <point x="10" y="-10" type="line"/>
      <point x="10" y="0" type="line"/>
      <point x="0" y="0" type="line"/>
      <point x="0" y="-10" type="line"/>
    </contour>
    <contour>
      <point x="40" y="-10" type="line"/>
      <point x="40" y="0" type="line"/>
      <point x="30" y="0" type="line"/>
      <point x="30" y="-10" type="line"/>
    </contour>
    <contour>
      <point x="30" y="40" type="line"/>
      <point x="30" y="50" type="line"/>
      <point x="10" y="50" type="line"/>
      <point x="10" y="40" type="line"/>
    </contour>
  </outline>
</glyph>
<glyph name="si-hira" format="1">
  <advance width="80"/>
  <unicode hex="3057"/>
  <note>
    comma
  </note>
  <outline>
    <contour>
      <point x="20" y="0" type="line"/>
      <point x="20" y="70" type="line"/>
      <point x="10" y="70" type="line"/>
      <point x="10" y="0" type="line"/>
    </contour>
    <contour>
      <point x="50" y="-10" type="line"/>
      <point x="50" y="0" type="line"/>
      <point x="20" y="0" type="line"/>
      <point x="20" y="-10" type="line"/>
    </contour>
    <contour>
      <point x="60" y="0" type="line"/>
      <point x="60" y="20" type="line"/>
      <point x="50" y="20" type="line"/>
      <point x="50" y="0" type="line"/>
    </contour>
  </outline>
</glyph>
<glyph name="su-hira" format="1">
  <advance width="80"/>
  <unicode hex="3059"/>
  <note>
    five
  </note>
  <outline>
    <contour>
      <point x="60" y="0" type="line"/>
      <point x="60" y="50" type="line"/>
      <point x="70" y="50" type="line"/>
      <point x="70" y="60" type="line"/>
      <point x="60" y="60" type="line"/>
      <point x="60" y="70" type="line"/>
      <point x="50" y="70" type="line"/>
      <point x="50" y="60" type="line"/>
      <point x="0" y="60" type="line"/>
      <point x="0" y="50" type="line"/>
      <point x="50" y="50" type="line"/>
      <point x="50" y="40" type="line"/>
      <point x="20" y="40" type="line"/>
      <point x="20" y="30" type="line"/>
      <point x="50" y="30" type="line"/>
      <point x="50" y="20" type="line"/>
      <point x="20" y="20" type="line"/>
      <point x="20" y="10" type="line"/>
      <point x="50" y="10" type="line"/>
      <point x="50" y="0" type="line"/>
    </contour>
    <contour>
      <point x="50" y="-10" type="line"/>
      <point x="50" y="0" type="line"/>
      <point x="30" y="0" type="line"/>
      <point x="30" y="-10" type="line"/>
    </contour>
    <contour>
      <point x="20" y="20" type="line"/>
      <point x="20" y="30" type="line"/>
      <point x="10" y="30" type="line"/>
      <point x="10" y="20" type="line"/>
    </contour>
  </outline>
</glyph>
<glyph name="da-hira" format="1">
  <advance width="80"/>
  <unicode hex="3060"/>
  <note>
    dollar
  </note>
  <outline>
    <contour>
      <point x="20" y="10" type="line"/>
      <point x="20" y="40" type="line"/>
      <point x="60" y="40" type="line"/>
      <point x="60" y="50" type="line"/>
      <point x="30" y="50" type="line"/>
      <point x="30" y="70" type="line"/>
      <point x="20" y="70" type="line"/>
      <point x="20" y="50" type="line"/>
      <point x="0" y="50" type="line"/>
      <point x="0" y="40" type="line"/>
      <point x="10" y="40" type="line"/>
      <point x="10" y="10" type="line"/>
    </contour>
    <contour>
      <point x="10" y="-10" type="line"/>
      <point x="10" y="10" type="line"/>
      <point x="0" y="10" type="line"/>
      <point x="0" y="-10" type="line"/>
    </contour>
    <contour>
      <point x="40" y="0" type="line"/>
      <point x="40" y="10" type="line"/>
      <point x="30" y="10" type="line"/>
      <point x="30" y="0" type="line"/>
    </contour>
    <contour>
      <point x="70" y="-10" type="line"/>
      <point x="70" y="0" type="line"/>
      <point x="40" y="0" type="line"/>
      <point x="40" y="-10" type="line"/>
    </contour>
    <contour>
      <point x="70" y="20" type="line"/>
      <point x="70" y="30" type="line"/>
      <point x="30" y="30" type="line"/>
      <point x="30" y="20" type="line"/>
    </contour>
    <contour>
      <point x="40" y="80" type="line"/>
      <point x="40" y="90" type="line"/>
      <point x="30" y="90" type="line"/>
      <point x="30" y="80" type="line"/>
    </contour>
    <contour>
      <point x="50" y="70" type="line"/>
      <point x="50" y="80" type="line"/>
      <point x="40" y="80" type="line"/>
      <point x="40" y="70" type="line"/>
    </contour>
    <contour>
      <point x="60" y="90" type="line"/>
      <point x="60" y="100" type="line"/>
      <point x="50" y="100" type="line"/>
      <point x="50" y="90" type="line"/>
    </contour>
    <contour>
      <point x="70" y="80" type="line"/>
      <point x="70" y="90" type="line"/>
      <point x="60" y="90" type="line"/>
      <point x="60" y="80" type="line"/>
    </contour>
  </outline>
</glyph>
<glyph name="tusmall-hira" format="1">
  <advance width="80"/>
  <unicode hex="3063"/>
  <note>
    Q
  </note>
  <outline>
    <contour>
      <point x="50" y="30" type="line"/>
      <point x="50" y="40" type="line"/>
      <point x="10" y="40" type="line"/>
      <point x="10" y="30" type="line"/>
    </contour>
    <contour>
      <point x="40" y="-10" type="line"/>
      <point x="40" y="0" type="line"/>
      <point x="20" y="0" type="line"/>
      <point x="20" y="-10" type="line"/>
    </contour>
    <contour>
      <point x="50" y="0" type="line"/>
      <point x="50" y="10" type="line"/>
      <point x="40" y="10" type="line"/>
      <point x="40" y="0" type="line"/>
    </contour>
    <contour>
      <point x="60" y="10" type="line"/>
      <point x="60" y="30" type="line"/>
      <point x="50" y="30" type="line"/>
      <point x="50" y="10" type="line"/>
    </contour>
  </outline>
</glyph>
<glyph name="tu-hira" format="1">
  <advance width="80"/>
  <unicode hex="3064"/>
  <note>
    six
  </note>
  <outline>
    <contour>
      <point x="60" y="40" type="line"/>
      <point x="60" y="50" type="line"/>
      <point x="10" y="50" type="line"/>
      <point x="10" y="40" type="line"/>
    </contour>
    <contour>
      <point x="50" y="-10" type="line"/>
      <point x="50" y="0" type="line"/>
      <point x="20" y="0" type="line"/>
      <point x="20" y="-10" type="line"/>
    </contour>
    <contour>
      <point x="60" y="0" type="line"/>
      <point x="60" y="10" type="line"/>
      <point x="50" y="10" type="line"/>
      <point x="50" y="0" type="line"/>
    </contour>
    <contour>
      <point x="70" y="10" type="line"/>
      <point x="70" y="40" type="line"/>
      <point x="60" y="40" type="line"/>
      <point x="60" y="10" type="line"/>
    </contour>
  </outline>
</glyph>
<glyph name="de-hira" format="1">
  <advance width="80"/>
  <unicode hex="3067"/>
  <note>
    a
  </note>
  <outline>
    <contour>
      <point x="60" y="40" type="line"/>
      <point x="60" y="50" type="line"/>
      <point x="70" y="50" type="line"/>
      <point x="70" y="60" type="line"/>
      <point x="0" y="60" type="line"/>
      <point x="0" y="50" type="line"/>
      <point x="40" y="50" type="line"/>
      <point x="40" y="40" type="line"/>
    </contour>
    <contour>
      <point x="40" y="0" type="line"/>
      <point x="40" y="10" type="line"/>
      <point x="30" y="10" type="line"/>
      <point x="30" y="0" type="line"/>
    </contour>
    <contour>
      <point x="30" y="10" type="line"/>
      <point x="30" y="30" type="line"/>
      <point x="20" y="30" type="line"/>
      <point x="20" y="10" type="line"/>
    </contour>
    <contour>
      <point x="60" y="-10" type="line"/>
      <point x="60" y="0" type="line"/>
      <point x="40" y="0" type="line"/>
      <point x="40" y="-10" type="line"/>
    </contour>
    <contour>
      <point x="40" y="30" type="line"/>
      <point x="40" y="40" type="line"/>
      <point x="30" y="40" type="line"/>
      <point x="30" y="30" type="line"/>
    </contour>
    <contour>
      <point x="40" y="80" type="line"/>
      <point x="40" y="90" type="line"/>
      <point x="30" y="90" type="line"/>
      <point x="30" y="80" type="line"/>
    </contour>
    <contour>
      <point x="50" y="70" type="line"/>
      <point x="50" y="80" type="line"/>
      <point x="40" y="80" type="line"/>
      <point x="40" y="70" type="line"/>
    </contour>
    <contour>
      <point x="60" y="90" type="line"/>
      <point x="60" y="100" type="line"/>
      <point x="50" y="100" type="line"/>
      <point x="50" y="90" type="line"/>
    </contour>
    <contour>
      <point x="70" y="80" type="line"/>
      <point x="70" y="90" type="line"/>
      <point x="60" y="90" type="line"/>
      <point x="60" y="80" type="line"/>
    </contour>
  </outline>
</glyph>
<glyph name="ni-hira" format="1">
  <advance width="80"/>
  <unicode hex="306B"/>
  <note>
    period
  </note>
  <outline>
    <contour>
      <point x="10" y="-10" type="line"/>
      <point x="10" y="60" type="line"/>
      <point x="0" y="60" type="line"/>
      <point x="0" y="-10" type="line"/>
    </contour>
    <contour>
      <point x="30" y="0" type="line"/>
      <point x="30" y="20" type="line"/>
      <point x="20" y="20" type="line"/>
      <point x="20" y="0" type="line"/>
    </contour>
    <contour>
      <point x="70" y="-10" type="line"/>
      <point x="70" y="0" type="line"/>
      <point x="30" y="0" type="line"/>
      <point x="30" y="-10" type="line"/>
    </contour>
    <contour>
      <point x="70" y="50" type="line"/>
      <point x="70" y="60" type="line"/>
      <point x="30" y="60" type="line"/>
      <point x="30" y="50" type="line"/>
    </contour>
  </outline>
</glyph>
<glyph name="no-hira" format="1">
  <advance width="80"/>
  <unicode hex="306E"/>
  <note>
    I
  </note>
  <outline>
    <contour>
      <point x="40" y="0" type="line"/>
      <point x="40" y="50" type="line"/>
      <point x="50" y="50" type="line"/>
      <point x="50" y="60" type="line"/>
      <point x="20" y="60" type="line"/>
      <point x="20" y="50" type="line"/>
      <point x="30" y="50" type="line"/>
      <point x="30" y="0" type="line"/>
    </contour>
    <contour>
      <point x="30" y="-10" type="line"/>
      <point x="30" y="0" type="line"/>
      <point x="10" y="0" type="line"/>
      <point x="10" y="-10" type="line"/>
    </contour>
    <contour>
      <point x="10" y="0" type="line"/>
      <point x="10" y="40" type="line"/>
      <point x="0" y="40" type="line"/>
      <point x="0" y="0" type="line"/>
    </contour>
    <contour>
      <point x="60" y="-10" type="line"/>
      <point x="60" y="0" type="line"/>
      <point x="50" y="0" type="line"/>
      <point x="50" y="-10" type="line"/>
    </contour>
    <contour>
      <point x="20" y="40" type="line"/>
      <point x="20" y="50" type="line"/>
      <point x="10" y="50" type="line"/>
      <point x="10" y="40" type="line"/>
    </contour>
    <contour>
      <point x="70" y="0" type="line"/>
      <point x="70" y="40" type="line"/>
      <point x="60" y="40" type="line"/>
      <point x="60" y="0" type="line"/>
    </contour>
    <contour>
      <point x="60" y="40" type="line"/>
      <point x="60" y="50" type="line"/>
      <point x="50" y="50" type="line"/>
      <point x="50" y="40" type="line"/>
    </contour>
  </outline>
</glyph>
<glyph name="pi-hira" format="1">
  <advance width="80"/>
  <unicode hex="3074"/>
  <note>
    slash
  </note>
  <outline>
    <contour>
      <point x="50" y="0" type="line"/>
      <point x="50" y="10" type="line"/>
      <point x="60" y="10" type="line"/>
      <point x="60" y="30" type="line"/>
      <point x="70" y="30" type="line"/>
      <point x="70" y="40" type="line"/>
      <point x="60" y="40" type="line"/>
      <point x="60" y="50" type="line"/>
      <point x="50" y="50" type="line"/>
      <point x="50" y="20" type="line"/>
      <point x="40" y="20" type="line"/>
      <point x="40" y="0" type="line"/>
    </contour>
    <contour>
      <point x="10" y="0" type="line"/>
      <point x="10" y="20" type="line"/>
      <point x="0" y="20" type="line"/>
      <point x="0" y="0" type="line"/>
    </contour>
    <contour>
      <point x="40" y="-10" type="line"/>
      <point x="40" y="0" type="line"/>
      <point x="10" y="0" type="line"/>
      <point x="10" y="-10" type="line"/>
    </contour>
    <contour>
      <point x="20" y="20" type="line"/>
      <point x="20" y="40" type="line"/>
      <point x="10" y="40" type="line"/>
      <point x="10" y="20" type="line"/>
    </contour>
    <contour>
      <point x="30" y="40" type="line"/>
      <point x="30" y="50" type="line"/>
      <point x="40" y="50" type="line"/>
      <point x="40" y="60" type="line"/>
      <point x="0" y="60" type="line"/>
      <point x="0" y="50" type="line"/>
      <point x="20" y="50" type="line"/>
      <point x="20" y="40" type="line"/>
    </contour>
    <contour>
      <point x="70" y="70" type="line"/>
      <point x="70" y="100" type="line"/>
      <point x="40" y="100" type="line"/>
      <point x="40" y="70" type="line"/>
    </contour>
    <contour>
      <point x="50" y="90" type="line"/>
      <point x="60" y="90" type="line"/>
      <point x="60" y="80" type="line"/>
      <point x="50" y="80" type="line"/>
    </contour>
  </outline>
</glyph>
<glyph name="kesmall-hira" format="1">
  <advance width="80"/>
  <unicode hex="3096"/>
  <outline>
    <contour>
      <point x="40" y="0" type="line"/>
      <point x="40" y="20" type="line"/>
      <point x="50" y="20" type="line"/>
      <point x="50" y="30" type="line"/>
      <point x="40" y="30" type="line"/>
      <point x="40" y="40" type="line"/>
      <point x="30" y="40" type="line"/>
      <point x="30" y="30" type="line"/>
      <point x="20" y="30" type="line"/>
      <point x="20" y="20" type="line"/>
      <point x="30" y="20" type="line"/>
      <point x="30" y="0" type="line"/>
    </contour>
    <contour>
      <point x="10" y="-10" type="line"/>
      <point x="10" y="40" type="line"/>
      <point x="0" y="40" type="line"/>
      <point x="0" y="-10" type="line"/>
    </contour>
    <contour>
      <point x="30" y="-10" type="line"/>
      <point x="30" y="0" type="line"/>
      <point x="20" y="0" type="line"/>
      <point x="20" y="-10" type="line"/>
    </contour>
  </outline>
</glyph>
<glyph name="voicedcomb-kana" format="1">
  <advance width="80"/>
  <unicode hex="3099"/>
  <outline>
    <contour>
      <point x="70" y="80" type="line"/>
      <point x="70" y="90" type="line"/>
      <point x="60" y="90" type="line"/>
      <point x="60" y="80" type="line"/>
    </contour>
    <contour>
      <point x="40" y="80" type="line"/>
      <point x="40" y="90" type="line"/>
      <point x="30" y="90" type="line"/>
      <point x="30" y="80" type="line"/>
    </contour>
    <contour>
      <point x="50" y="70" type="line"/>
      <point x="50" y="80" type="line"/>
      <point x="40" y="80" type="line"/>
      <point x="40" y="70" type="line"/>
    </contour>
    <contour>
      <point x="60" y="90" type="line"/>
      <point x="60" y="100" type="line"/>
      <point x="50" y="100" type="line"/>
      <point x="50" y="90" type="line"/>
    </contour>
  </outline>
</glyph>
<glyph name="semivoicedcomb-kana" format="1">
  <advance width="80"/>
  <unicode hex="309A"/>
  <outline>
    <contour>
      <point x="70" y="70" type="line"/>
      <point x="70" y="100" type="line"/>
      <point x="40" y="100" type="line"/>
      <point x="40" y="70" type="line"/>
    </contour>
    <contour>
      <point x="50" y="90" type="line"/>
      <point x="60" y="90" type="line"/>
      <point x="60" y="80" type="line"/>
      <point x="50" y="80" type="line"/>
    </contour>
  </outline>
</glyph>
<glyph name="voiced-kana" format="1">
  <advance width="80"/>
  <unicode hex="309B"/>
  <outline>
    <contour>
      <point x="40" y="50" type="line"/>
      <point x="40" y="60" type="line"/>
      <point x="30" y="60" type="line"/>
      <point x="30" y="50" type="line"/>
    </contour>
    <contour>
      <point x="10" y="50" type="line"/>
      <point x="10" y="60" type="line"/>
      <point x="0" y="60" type="line"/>
      <point x="0" y="50" type="line"/>
    </contour>
    <contour>
      <point x="20" y="40" type="line"/>
      <point x="20" y="50" type="line"/>
      <point x="10" y="50" type="line"/>
      <point x="10" y="40" type="line"/>
    </contour>
    <contour>
      <point x="30" y="60" type="line"/>
      <point x="30" y="70" type="line"/>
      <point x="20" y="70" type="line"/>
      <point x="20" y="60" type="line"/>
    </contour>
  </outline>
</glyph>
<glyph name="semivoiced-kana" format="1">
  <advance width="80"/>
  <unicode hex="309C"/>
  <outline>
    <contour>
      <point x="30" y="40" type="line"/>
      <point x="30" y="70" type="line"/>
      <point x="0" y="70" type="line"/>
      <point x="0" y="40" type="line"/>
    </contour>
    <contour>
      <point x="10" y="60" type="line"/>
      <point x="20" y="60" type="line"/>
      <point x="20" y="50" type="line"/>
      <point x="10" y="50" type="line"/>
    </contour>
  </outline>
</glyph>
<glyph name="iteration-hira" format="1">
  <advance width="80"/>
  <unicode hex="309D"/>
  <outline>
    <contour>
      <point x="50" y="10" type="line"/>
      <point x="50" y="30" type="line"/>
      <point x="40" y="30" type="line"/>
      <point x="40" y="10" type="line"/>
    </contour>
    <contour>
      <point x="40" y="0" type="line"/>
      <point x="40" y="10" type="line"/>
      <point x="30" y="10" type="line"/>
      <point x="30" y="0" type="line"/>
    </contour>
    <contour>
      <point x="30" y="40" type="line"/>
      <point x="30" y="50" type="line"/>
      <point x="20" y="50" type="line"/>
      <point x="20" y="40" type="line"/>
    </contour>
    <contour>
      <point x="40" y="30" type="line"/>
      <point x="40" y="40" type="line"/>
      <point x="30" y="40" type="line"/>
      <point x="30" y="30" type="line"/>
    </contour>
  </outline>
</glyph>
<glyph name="voicediteration-hira" format="1">
  <advance width="80"/>
  <unicode hex="309E"/>
  <outline>
    <contour>
      <point x="50" y="10" type="line"/>
      <point x="50" y="30" type="line"/>
      <point x="40" y="30" type="line"/>
      <point x="40" y="10" type="line"/>
    </contour>
    <contour>
      <point x="40" y="0" type="line"/>
      <point x="40" y="10" type="line"/>
      <point x="30" y="10" type="line"/>
      <point x="30" y="0" type="line"/>
    </contour>
    <contour>
      <point x="30" y="40" type="line"/>
      <point x="30" y="50" type="line"/>
      <point x="20" y="50" type="line"/>
      <point x="20" y="40" type="line"/>
    </contour>
    <contour>
      <point x="40" y="30" type="line"/>
      <point x="40" y="40" type="line"/>
      <point x="30" y="40" type="line"/>
      <point x="30" y="30" type="line"/>
    </contour>
    <contour>
      <point x="40" y="60" type="line"/>
      <point x="40" y="70" type="line"/>
      <point x="30" y="70" type="line"/>
      <point x="30" y="60" type="line"/>
    </contour>
    <contour>
      <point x="50" y="50" type="line"/>
      <point x="50" y="60" type="line"/>
      <point x="40" y="60" type="line"/>
      <point x="40" y="50" type="line"/>
    </contour>
    <contour>
      <point x="60" y="70" type="line"/>
      <point x="60" y="80" type="line"/>
      <point x="50" y="80" type="line"/>
      <point x="50" y="70" type="line"/>
    </contour>
    <contour>
      <point x="70" y="60" type="line"/>
      <point x="70" y="70" type="line"/>
      <point x="60" y="70" type="line"/>
      <point x="60" y="60" type="line"/>
    </contour>
  </outline>
</glyph>
<glyph name="dblhyphen-kana" format="1">
  <advance width="80"/>
  <unicode hex="30A0"/>
  <note>
    A
  </note>
  <outline>
    <contour>
      <point x="61" y="30" type="line"/>
      <point x="61" y="40" type="line"/>
      <point x="10" y="40" type="line"/>
      <point x="10" y="30" type="line"/>
    </contour>
    <contour>
      <point x="61" y="10" type="line"/>
      <point x="61" y="20" type="line"/>
      <point x="10" y="20" type="line"/>
      <point x="10" y="10" type="line"/>
    </contour>
  </outline>
</glyph>
<glyph name="a-kata" format="1">
  <advance width="80"/>
  <unicode hex="30A2"/>
  <note>
    A
  </note>
  <outline>
    <contour>
      <point x="70" y="30" type="line"/>
      <point x="70" y="60" type="line"/>
      <point x="0" y="60" type="line"/>
      <point x="0" y="50" type="line"/>
      <point x="60" y="50" type="line"/>
      <point x="60" y="30" type="line"/>
    </contour>
    <contour>
      <point x="30" y="-10" type="line"/>
      <point x="30" y="0" type="line"/>
      <point x="10" y="0" type="line"/>
      <point x="10" y="-10" type="line"/>
    </contour>
    <contour>
      <point x="40" y="0" type="line"/>
      <point x="40" y="20" type="line"/>
      <point x="60" y="20" type="line"/>
      <point x="60" y="30" type="line"/>
      <point x="40" y="30" type="line"/>
      <point x="40" y="40" type="line"/>
      <point x="30" y="40" type="line"/>
      <point x="30" y="0" type="line"/>
    </contour>
  </outline>
</glyph>
<glyph name="ismall-kata" format="1">
  <advance width="80"/>
  <unicode hex="30A3"/>
  <note>
    q
  </note>
  <outline>
    <contour>
      <point x="30" y="-10" type="line"/>
      <point x="30" y="30" type="line"/>
      <point x="20" y="30" type="line"/>
      <point x="20" y="20" type="line"/>
      <point x="0" y="20" type="line"/>
      <point x="0" y="10" type="line"/>
      <point x="20" y="10" type="line"/>
      <point x="20" y="-10" type="line"/>
    </contour>
    <contour>
      <point x="40" y="30" type="line"/>
      <point x="40" y="40" type="line"/>
      <point x="30" y="40" type="line"/>
      <point x="30" y="30" type="line"/>
    </contour>
  </outline>
</glyph>
<glyph name="i-kata" format="1">
  <advance width="80"/>
  <unicode hex="30A4"/>
  <note>
    B
  </note>
  <outline>
    <contour>
      <point x="40" y="-10" type="line"/>
      <point x="40" y="40" type="line"/>
      <point x="20" y="40" type="line"/>
      <point x="20" y="30" type="line"/>
      <point x="30" y="30" type="line"/>
      <point x="30" y="-10" type="line"/>
    </contour>
    <contour>
      <point x="20" y="20" type="line"/>
      <point x="20" y="30" type="line"/>
      <point x="0" y="30" type="line"/>
      <point x="0" y="20" type="line"/>
    </contour>
    <contour>
      <point x="50" y="40" type="line"/>
      <point x="50" y="50" type="line"/>
      <point x="40" y="50" type="line"/>
      <point x="40" y="40" type="line"/>
    </contour>
    <contour>
      <point x="60" y="50" type="line"/>
      <point x="60" y="70" type="line"/>
      <point x="50" y="70" type="line"/>
      <point x="50" y="50" type="line"/>
    </contour>
  </outline>
</glyph>
<glyph name="usmall-kata" format="1">
  <advance width="80"/>
  <unicode hex="30A5"/>
  <note>
    p.80
  </note>
  <outline>
    <contour>
      <point x="10" y="10" type="line"/>
      <point x="10" y="20" type="line"/>
      <point x="40" y="20" type="line"/>
      <point x="40" y="10" type="line"/>
      <point x="50" y="10" type="line"/>
      <point x="50" y="30" type="line"/>
      <point x="30" y="30" type="line"/>
      <point x="30" y="40" type="line"/>
      <point x="20" y="40" type="line"/>
      <point x="20" y="30" type="line"/>
      <point x="0" y="30" type="line"/>
      <point x="0" y="10" type="line"/>
    </contour>
    <contour>
      <point x="30" y="-10" type="line"/>
      <point x="30" y="0" type="line"/>
      <point x="10" y="0" type="line"/>
      <point x="10" y="-10" type="line"/>
    </contour>
    <contour>
      <point x="40" y="0" type="line"/>
      <point x="40" y="10" type="line"/>
      <point x="30" y="10" type="line"/>
      <point x="30" y="0" type="line"/>
    </contour>
  </outline>
</glyph>
<glyph name="esmall-kata" format="1">
  <advance width="80"/>
  <unicode hex="30A7"/>
  <note>
    q.81
  </note>
  <outline>
    <contour>
      <point x="50" y="-10" type="line"/>
      <point x="50" y="0" type="line"/>
      <point x="30" y="0" type="line"/>
      <point x="30" y="20" type="line"/>
      <point x="40" y="20" type="line"/>
      <point x="40" y="30" type="line"/>
      <point x="10" y="30" type="line"/>
      <point x="10" y="20" type="line"/>
      <point x="20" y="20" type="line"/>
      <point x="20" y="0" type="line"/>
      <point x="0" y="0" type="line"/>
      <point x="0" y="-10" type="line"/>
    </contour>
  </outline>
</glyph>
<glyph name="e-kata" format="1">
  <advance width="80"/>
  <unicode hex="30A8"/>
  <note>
    D
  </note>
  <outline>
    <contour>
      <point x="70" y="-10" type="line"/>
      <point x="70" y="0" type="line"/>
      <point x="40" y="0" type="line"/>
      <point x="40" y="50" type="line"/>
      <point x="60" y="50" type="line"/>
      <point x="60" y="60" type="line"/>
      <point x="10" y="60" type="line"/>
      <point x="10" y="50" type="line"/>
      <point x="30" y="50" type="line"/>
      <point x="30" y="0" type="line"/>
      <point x="0" y="0" type="line"/>
      <point x="0" y="-10" type="line"/>
    </contour>
  </outline>
</glyph>
<glyph name="ka-kata" format="1">
  <advance width="80"/>
  <unicode hex="30AB"/>
  <note>
    F
  </note>
  <outline>
    <contour>
      <point x="70" y="0" type="line"/>
      <point x="70" y="50" type="line"/>
      <point x="30" y="50" type="line"/>
      <point x="30" y="70" type="line"/>
      <point x="20" y="70" type="line"/>
      <point x="20" y="50" type="line"/>
      <point x="10" y="50" type="line"/>
      <point x="10" y="40" type="line"/>
      <point x="20" y="40" type="line"/>
      <point x="20" y="10" type="line"/>
      <point x="30" y="10" type="line"/>
      <point x="30" y="40" type="line"/>
      <point x="60" y="40" type="line"/>
      <point x="60" y="0" type="line"/>
    </contour>
    <contour>
      <point x="10" y="-10" type="line"/>
      <point x="10" y="0" type="line"/>
      <point x="0" y="0" type="line"/>
      <point x="0" y="-10" type="line"/>
    </contour>
    <contour>
      <point x="20" y="0" type="line"/>
      <point x="20" y="10" type="line"/>
      <point x="10" y="10" type="line"/>
      <point x="10" y="0" type="line"/>
    </contour>
    <contour>
      <point x="60" y="-10" type="line"/>
      <point x="60" y="0" type="line"/>
      <point x="40" y="0" type="line"/>
      <point x="40" y="-10" type="line"/>
    </contour>
  </outline>
</glyph>
<glyph name="gi-kata" format="1">
  <advance width="80"/>
  <unicode hex="30AE"/>
  <note>
    V.54
  </note>
  <outline>
    <contour>
      <point x="40" y="-10" type="line"/>
      <point x="40" y="20" type="line"/>
      <point x="70" y="20" type="line"/>
      <point x="70" y="30" type="line"/>
      <point x="40" y="30" type="line"/>
      <point x="40" y="50" type="line"/>
      <point x="70" y="50" type="line"/>
      <point x="70" y="60" type="line"/>
      <point x="40" y="60" type="line"/>
      <point x="40" y="70" type="line"/>
      <point x="30" y="70" type="line"/>
      <point x="30" y="60" type="line"/>
      <point x="0" y="60" type="line"/>
      <point x="0" y="50" type="line"/>
      <point x="30" y="50" type="line"/>
      <point x="30" y="30" type="line"/>
      <point x="0" y="30" type="line"/>
      <point x="0" y="20" type="line"/>
      <point x="30" y="20" type="line"/>
      <point x="30" y="-10" type="line"/>
    </contour>
    <contour>
      <point x="40" y="80" type="line"/>
      <point x="40" y="90" type="line"/>
      <point x="30" y="90" type="line"/>
      <point x="30" y="80" type="line"/>
    </contour>
    <contour>
      <point x="50" y="70" type="line"/>
      <point x="50" y="80" type="line"/>
      <point x="40" y="80" type="line"/>
      <point x="40" y="70" type="line"/>
    </contour>
    <contour>
      <point x="60" y="90" type="line"/>
      <point x="60" y="100" type="line"/>
      <point x="50" y="100" type="line"/>
      <point x="50" y="90" type="line"/>
    </contour>
    <contour>
      <point x="70" y="80" type="line"/>
      <point x="70" y="90" type="line"/>
      <point x="60" y="90" type="line"/>
      <point x="60" y="80" type="line"/>
    </contour>
  </outline>
</glyph>
<glyph name="ko-kata" format="1">
  <advance width="80"/>
  <unicode hex="30B3"/>
  <note>
    J
  </note>
  <outline>
    <contour>
      <point x="60" y="-10" type="line"/>
      <point x="60" y="60" type="line"/>
      <point x="0" y="60" type="line"/>
      <point x="0" y="50" type="line"/>
      <point x="50" y="50" type="line"/>
      <point x="50" y="0" type="line"/>
      <point x="0" y="0" type="line"/>
      <point x="0" y="-10" type="line"/>
    </contour>
  </outline>
</glyph>
<glyph name="za-kata" format="1">
  <advance width="80"/>
  <unicode hex="30B6"/>
  <note>
    S.51
  </note>
  <outline>
    <contour>
      <point x="60" y="0" type="line"/>
      <point x="60" y="40" type="line"/>
      <point x="70" y="40" type="line"/>
      <point x="70" y="50" type="line"/>
      <point x="60" y="50" type="line"/>
      <point x="60" y="70" type="line"/>
      <point x="50" y="70" type="line"/>
      <point x="50" y="50" type="line"/>
      <point x="20" y="50" type="line"/>
      <point x="20" y="70" type="line"/>
      <point x="10" y="70" type="line"/>
      <point x="10" y="50" type="line"/>
      <point x="0" y="50" type="line"/>
      <point x="0" y="40" type="line"/>
      <point x="10" y="40" type="line"/>
      <point x="10" y="20" type="line"/>
      <point x="20" y="20" type="line"/>
      <point x="20" y="40" type="line"/>
      <point x="50" y="40" type="line"/>
      <point x="50" y="0" type="line"/>
    </contour>
    <contour>
      <point x="50" y="-10" type="line"/>
      <point x="50" y="0" type="line"/>
      <point x="20" y="0" type="line"/>
      <point x="20" y="-10" type="line"/>
    </contour>
    <contour>
      <point x="40" y="80" type="line"/>
      <point x="40" y="90" type="line"/>
      <point x="30" y="90" type="line"/>
      <point x="30" y="80" type="line"/>
    </contour>
    <contour>
      <point x="50" y="70" type="line"/>
      <point x="50" y="80" type="line"/>
      <point x="40" y="80" type="line"/>
      <point x="40" y="70" type="line"/>
    </contour>
    <contour>
      <point x="60" y="90" type="line"/>
      <point x="60" y="100" type="line"/>
      <point x="50" y="100" type="line"/>
      <point x="50" y="90" type="line"/>
    </contour>
    <contour>
      <point x="70" y="80" type="line"/>
      <point x="70" y="90" type="line"/>
      <point x="60" y="90" type="line"/>
      <point x="60" y="80" type="line"/>
    </contour>
  </outline>
</glyph>
<glyph name="si-kata" format="1">
  <advance width="80"/>
  <unicode hex="30B7"/>
  <note>
    L
  </note>
  <outline>
    <contour>
      <point x="60" y="10" type="line"/>
      <point x="60" y="50" type="line"/>
      <point x="50" y="50" type="line"/>
      <point x="50" y="10" type="line"/>
    </contour>
    <contour>
      <point x="40" y="-10" type="line"/>
      <point x="40" y="0" type="line"/>
      <point x="0" y="0" type="line"/>
      <point x="0" y="-10" type="line"/>
    </contour>
    <contour>
      <point x="30" y="30" type="line"/>
      <point x="30" y="40" type="line"/>
      <point x="0" y="40" type="line"/>
      <point x="0" y="30" type="line"/>
    </contour>
    <contour>
      <point x="50" y="0" type="line"/>
      <point x="50" y="10" type="line"/>
      <point x="40" y="10" type="line"/>
      <point x="40" y="0" type="line"/>
    </contour>
    <contour>
      <point x="30" y="50" type="line"/>
      <point x="30" y="60" type="line"/>
      <point x="0" y="60" type="line"/>
      <point x="0" y="50" type="line"/>
    </contour>
  </outline>
</glyph>
<glyph name="tu-kata" format="1">
  <advance width="80"/>
  <unicode hex="30C4"/>
  <note>
    R
  </note>
  <outline>
    <contour>
      <point x="60" y="10" type="line"/>
      <point x="60" y="60" type="line"/>
      <point x="50" y="60" type="line"/>
      <point x="50" y="10" type="line"/>
    </contour>
    <contour>
      <point x="40" y="-10" type="line"/>
      <point x="40" y="0" type="line"/>
      <point x="10" y="0" type="line"/>
      <point x="10" y="-10" type="line"/>
    </contour>
    <contour>
      <point x="10" y="30" type="line"/>
      <point x="10" y="60" type="line"/>
      <point x="0" y="60" type="line"/>
      <point x="0" y="30" type="line"/>
    </contour>
    <contour>
      <point x="50" y="0" type="line"/>
      <point x="50" y="10" type="line"/>
      <point x="40" y="10" type="line"/>
      <point x="40" y="0" type="line"/>
    </contour>
    <contour>
      <point x="30" y="30" type="line"/>
      <point x="30" y="60" type="line"/>
      <point x="20" y="60" type="line"/>
      <point x="20" y="30" type="line"/>
    </contour>
  </outline>
</glyph>
<glyph name="to-kata" format="1">
  <advance width="80"/>
  <unicode hex="30C8"/>
  <note>
    T
  </note>
  <outline>
    <contour>
      <point x="10" y="-10" type="line"/>
      <point x="10" y="30" type="line"/>
      <point x="40" y="30" type="line"/>
      <point x="40" y="40" type="line"/>
      <point x="10" y="40" type="line"/>
      <point x="10" y="70" type="line"/>
      <point x="0" y="70" type="line"/>
      <point x="0" y="-10" type="line"/>
    </contour>
    <contour>
      <point x="50" y="20" type="line"/>
      <point x="50" y="30" type="line"/>
      <point x="40" y="30" type="line"/>
      <point x="40" y="20" type="line"/>
    </contour>
  </outline>
</glyph>
<glyph name="do-kata" format="1">
  <advance width="80"/>
  <unicode hex="30C9"/>
  <note>
    d.68
  </note>
  <outline>
    <contour>
      <point x="10" y="-10" type="line"/>
      <point x="10" y="30" type="line"/>
      <point x="40" y="30" type="line"/>
      <point x="40" y="40" type="line"/>
      <point x="10" y="40" type="line"/>
      <point x="10" y="70" type="line"/>
      <point x="0" y="70" type="line"/>
      <point x="0" y="-10" type="line"/>
    </contour>
    <contour>
      <point x="50" y="20" type="line"/>
      <point x="50" y="30" type="line"/>
      <point x="40" y="30" type="line"/>
      <point x="40" y="20" type="line"/>
    </contour>
    <contour>
      <point x="20" y="80" type="line"/>
      <point x="20" y="90" type="line"/>
      <point x="10" y="90" type="line"/>
      <point x="10" y="80" type="line"/>
    </contour>
    <contour>
      <point x="30" y="70" type="line"/>
      <point x="30" y="80" type="line"/>
      <point x="20" y="80" type="line"/>
      <point x="20" y="70" type="line"/>
    </contour>
    <contour>
      <point x="40" y="90" type="line"/>
      <point x="40" y="100" type="line"/>
      <point x="30" y="100" type="line"/>
      <point x="30" y="90" type="line"/>
    </contour>
    <contour>
      <point x="50" y="80" type="line"/>
      <point x="50" y="90" type="line"/>
      <point x="40" y="90" type="line"/>
      <point x="40" y="80" type="line"/>
    </contour>
  </outline>
</glyph>
<glyph name="na-kata" format="1">
  <advance width="80"/>
  <unicode hex="30CA"/>
  <note>
    U
  </note>
  <outline>
    <contour>
      <point x="50" y="10" type="line"/>
      <point x="50" y="40" type="line"/>
      <point x="70" y="40" type="line"/>
      <point x="70" y="50" type="line"/>
      <point x="50" y="50" type="line"/>
      <point x="50" y="70" type="line"/>
      <point x="40" y="70" type="line"/>
      <point x="40" y="50" type="line"/>
      <point x="0" y="50" type="line"/>
      <point x="0" y="40" type="line"/>
      <point x="40" y="40" type="line"/>
      <point x="40" y="10" type="line"/>
    </contour>
    <contour>
      <point x="30" y="-10" type="line"/>
      <point x="30" y="0" type="line"/>
      <point x="10" y="0" type="line"/>
      <point x="10" y="-10" type="line"/>
    </contour>
    <contour>
      <point x="40" y="0" type="line"/>
      <point x="40" y="10" type="line"/>
      <point x="30" y="10" type="line"/>
      <point x="30" y="0" type="line"/>
    </contour>
  </outline>
</glyph>
<glyph name="no-kata" format="1">
  <advance width="80"/>
  <unicode hex="30CE"/>
  <note>
    Y
  </note>
  <outline>
    <contour>
      <point x="60" y="30" type="line"/>
      <point x="60" y="60" type="line"/>
      <point x="50" y="60" type="line"/>
      <point x="50" y="30" type="line"/>
    </contour>
    <contour>
      <point x="20" y="-10" type="line"/>
      <point x="20" y="0" type="line"/>
      <point x="0" y="0" type="line"/>
      <point x="0" y="-10" type="line"/>
    </contour>
    <contour>
      <point x="40" y="0" type="line"/>
      <point x="40" y="10" type="line"/>
      <point x="20" y="10" type="line"/>
      <point x="20" y="0" type="line"/>
    </contour>
    <contour>
      <point x="50" y="10" type="line"/>
      <point x="50" y="30" type="line"/>
      <point x="40" y="30" type="line"/>
      <point x="40" y="10" type="line"/>
    </contour>
  </outline>
</glyph>
<glyph name="ha-kata" format="1">
  <advance width="80"/>
  <unicode hex="30CF"/>
  <note>
    Z
  </note>
  <outline>
    <contour>
      <point x="20" y="10" type="line"/>
      <point x="20" y="50" type="line"/>
      <point x="10" y="50" type="line"/>
      <point x="10" y="10" type="line"/>
    </contour>
    <contour>
      <point x="10" y="-10" type="line"/>
      <point x="10" y="10" type="line"/>
      <point x="0" y="10" type="line"/>
      <point x="0" y="-10" type="line"/>
    </contour>
    <contour>
      <point x="70" y="-10" type="line"/>
      <point x="70" y="20" type="line"/>
      <point x="60" y="20" type="line"/>
      <point x="60" y="-10" type="line"/>
    </contour>
    <contour>
      <point x="60" y="20" type="line"/>
      <point x="60" y="40" type="line"/>
      <point x="50" y="40" type="line"/>
      <point x="50" y="20" type="line"/>
    </contour>
    <contour>
      <point x="50" y="40" type="line"/>
      <point x="50" y="50" type="line"/>
      <point x="40" y="50" type="line"/>
      <point x="40" y="40" type="line"/>
    </contour>
  </outline>
</glyph>
<glyph name="ba-kata" format="1">
  <advance width="80"/>
  <unicode hex="30D0"/>
  <note>
    U.53
  </note>
  <outline>
    <contour>
      <point x="20" y="10" type="line"/>
      <point x="20" y="50" type="line"/>
      <point x="10" y="50" type="line"/>
      <point x="10" y="10" type="line"/>
    </contour>
    <contour>
      <point x="10" y="-10" type="line"/>
      <point x="10" y="10" type="line"/>
      <point x="0" y="10" type="line"/>
      <point x="0" y="-10" type="line"/>
    </contour>
    <contour>
      <point x="70" y="-10" type="line"/>
      <point x="70" y="20" type="line"/>
      <point x="60" y="20" type="line"/>
      <point x="60" y="-10" type="line"/>
    </contour>
    <contour>
      <point x="60" y="20" type="line"/>
      <point x="60" y="40" type="line"/>
      <point x="50" y="40" type="line"/>
      <point x="50" y="20" type="line"/>
    </contour>
    <contour>
      <point x="50" y="40" type="line"/>
      <point x="50" y="50" type="line"/>
      <point x="40" y="50" type="line"/>
      <point x="40" y="40" type="line"/>
    </contour>
    <contour>
      <point x="40" y="80" type="line"/>
      <point x="40" y="90" type="line"/>
      <point x="30" y="90" type="line"/>
      <point x="30" y="80" type="line"/>
    </contour>
    <contour>
      <point x="50" y="70" type="line"/>
      <point x="50" y="80" type="line"/>
      <point x="40" y="80" type="line"/>
      <point x="40" y="70" type="line"/>
    </contour>
    <contour>
      <point x="60" y="90" type="line"/>
      <point x="60" y="100" type="line"/>
      <point x="50" y="100" type="line"/>
      <point x="50" y="90" type="line"/>
    </contour>
    <contour>
      <point x="70" y="80" type="line"/>
      <point x="70" y="90" type="line"/>
      <point x="60" y="90" type="line"/>
      <point x="60" y="80" type="line"/>
    </contour>
  </outline>
</glyph>
<glyph name="pa-kata" format="1">
  <advance width="80"/>
  <unicode hex="30D1"/>
  <note>
    f.70
  </note>
  <outline>
    <contour>
      <point x="70" y="70" type="line"/>
      <point x="70" y="100" type="line"/>
      <point x="40" y="100" type="line"/>
      <point x="40" y="70" type="line"/>
    </contour>
    <contour>
      <point x="10" y="-10" type="line"/>
      <point x="10" y="10" type="line"/>
      <point x="0" y="10" type="line"/>
      <point x="0" y="-10" type="line"/>
    </contour>
    <contour>
      <point x="20" y="10" type="line"/>
      <point x="20" y="50" type="line"/>
      <point x="10" y="50" type="line"/>
      <point x="10" y="10" type="line"/>
    </contour>
    <contour>
      <point x="70" y="-10" type="line"/>
      <point x="70" y="20" type="line"/>
      <point x="60" y="20" type="line"/>
      <point x="60" y="-10" type="line"/>
    </contour>
    <contour>
      <point x="60" y="20" type="line"/>
      <point x="60" y="40" type="line"/>
      <point x="50" y="40" type="line"/>
      <point x="50" y="20" type="line"/>
    </contour>
    <contour>
      <point x="50" y="40" type="line"/>
      <point x="50" y="50" type="line"/>
      <point x="40" y="50" type="line"/>
      <point x="40" y="40" type="line"/>
    </contour>
    <contour>
      <point x="50" y="90" type="line"/>
      <point x="60" y="90" type="line"/>
      <point x="60" y="80" type="line"/>
      <point x="50" y="80" type="line"/>
    </contour>
  </outline>
</glyph>
<glyph name="hi-kata" format="1">
  <advance width="80"/>
  <unicode hex="30D2"/>
  <note>
    bracketleft
  </note>
  <outline>
    <contour>
      <point x="10" y="0" type="line"/>
      <point x="10" y="30" type="line"/>
      <point x="40" y="30" type="line"/>
      <point x="40" y="40" type="line"/>
      <point x="10" y="40" type="line"/>
      <point x="10" y="70" type="line"/>
      <point x="0" y="70" type="line"/>
      <point x="0" y="0" type="line"/>
    </contour>
    <contour>
      <point x="70" y="-10" type="line"/>
      <point x="70" y="0" type="line"/>
      <point x="10" y="0" type="line"/>
      <point x="10" y="-10" type="line"/>
    </contour>
    <contour>
      <point x="60" y="40" type="line"/>
      <point x="60" y="50" type="line"/>
      <point x="40" y="50" type="line"/>
      <point x="40" y="40" type="line"/>
    </contour>
  </outline>
</glyph>
<glyph name="hu-kata" format="1">
  <advance width="80"/>
  <unicode hex="30D5"/>
  <note>
    backslash
  </note>
  <outline>
    <contour>
      <point x="70" y="30" type="line"/>
      <point x="70" y="60" type="line"/>
      <point x="0" y="60" type="line"/>
      <point x="0" y="50" type="line"/>
      <point x="60" y="50" type="line"/>
      <point x="60" y="30" type="line"/>
    </contour>
    <contour>
      <point x="40" y="-10" type="line"/>
      <point x="40" y="0" type="line"/>
      <point x="20" y="0" type="line"/>
      <point x="20" y="-10" type="line"/>
    </contour>
    <contour>
      <point x="50" y="0" type="line"/>
      <point x="50" y="10" type="line"/>
      <point x="40" y="10" type="line"/>
      <point x="40" y="0" type="line"/>
    </contour>
    <contour>
      <point x="60" y="10" type="line"/>
      <point x="60" y="30" type="line"/>
      <point x="50" y="30" type="line"/>
      <point x="50" y="10" type="line"/>
    </contour>
  </outline>
</glyph>
<glyph name="pu-kata" format="1">
  <advance width="80"/>
  <unicode hex="30D7"/>
  <note>
    h.72
  </note>
  <outline>
    <contour>
      <point x="70" y="30" type="line"/>
      <point x="70" y="60" type="line"/>
      <point x="0" y="60" type="line"/>
      <point x="0" y="50" type="line"/>
      <point x="60" y="50" type="line"/>
      <point x="60" y="30" type="line"/>
    </contour>
    <contour>
      <point x="40" y="-10" type="line"/>
      <point x="40" y="0" type="line"/>
      <point x="20" y="0" type="line"/>
      <point x="20" y="-10" type="line"/>
    </contour>
    <contour>
      <point x="50" y="0" type="line"/>
      <point x="50" y="10" type="line"/>
      <point x="40" y="10" type="line"/>
      <point x="40" y="0" type="line"/>
    </contour>
    <contour>
      <point x="60" y="10" type="line"/>
      <point x="60" y="30" type="line"/>
      <point x="50" y="30" type="line"/>
      <point x="50" y="10" type="line"/>
    </contour>
    <contour>
      <point x="70" y="70" type="line"/>
      <point x="70" y="100" type="line"/>
      <point x="40" y="100" type="line"/>
      <point x="40" y="70" type="line"/>
    </contour>
    <contour>
      <point x="50" y="90" type="line"/>
      <point x="60" y="90" type="line"/>
      <point x="60" y="80" type="line"/>
      <point x="50" y="80" type="line"/>
    </contour>
  </outline>
</glyph>
<glyph name="bo-kata" format="1">
  <advance width="80"/>
  <unicode hex="30DC"/>
  <note>
    e.69
  </note>
  <outline>
    <contour>
      <point x="40" y="-10" type="line"/>
      <point x="40" y="40" type="line"/>
      <point x="70" y="40" type="line"/>
      <point x="70" y="50" type="line"/>
      <point x="40" y="50" type="line"/>
      <point x="40" y="70" type="line"/>
      <point x="30" y="70" type="line"/>
      <point x="30" y="50" type="line"/>
      <point x="0" y="50" type="line"/>
      <point x="0" y="40" type="line"/>
      <point x="30" y="40" type="line"/>
      <point x="30" y="-10" type="line"/>
    </contour>
    <contour>
      <point x="10" y="-10" type="line"/>
      <point x="10" y="0" type="line"/>
      <point x="0" y="0" type="line"/>
      <point x="0" y="-10" type="line"/>
    </contour>
    <contour>
      <point x="20" y="0" type="line"/>
      <point x="20" y="30" type="line"/>
      <point x="10" y="30" type="line"/>
      <point x="10" y="0" type="line"/>
    </contour>
    <contour>
      <point x="70" y="-10" type="line"/>
      <point x="70" y="20" type="line"/>
      <point x="60" y="20" type="line"/>
      <point x="60" y="-10" type="line"/>
    </contour>
    <contour>
      <point x="60" y="20" type="line"/>
      <point x="60" y="30" type="line"/>
      <point x="50" y="30" type="line"/>
      <point x="50" y="20" type="line"/>
    </contour>
    <contour>
      <point x="40" y="80" type="line"/>
      <point x="40" y="90" type="line"/>
      <point x="30" y="90" type="line"/>
      <point x="30" y="80" type="line"/>
    </contour>
    <contour>
      <point x="50" y="70" type="line"/>
      <point x="50" y="80" type="line"/>
      <point x="40" y="80" type="line"/>
      <point x="40" y="70" type="line"/>
    </contour>
    <contour>
      <point x="60" y="90" type="line"/>
      <point x="60" y="100" type="line"/>
      <point x="50" y="100" type="line"/>
      <point x="50" y="90" type="line"/>
    </contour>
    <contour>
      <point x="70" y="80" type="line"/>
      <point x="70" y="90" type="line"/>
      <point x="60" y="90" type="line"/>
      <point x="60" y="80" type="line"/>
    </contour>
  </outline>
</glyph>
<glyph name="mu-kata" format="1">
  <advance width="80"/>
  <unicode hex="30E0"/>
  <note>
    grave
  </note>
  <outline>
    <contour>
      <point x="70" y="-10" type="line"/>
      <point x="70" y="10" type="line"/>
      <point x="60" y="10" type="line"/>
      <point x="60" y="0" type="line"/>
      <point x="10" y="0" type="line"/>
      <point x="10" y="10" type="line"/>
      <point x="0" y="10" type="line"/>
      <point x="0" y="-10" type="line"/>
    </contour>
    <contour>
      <point x="20" y="10" type="line"/>
      <point x="20" y="30" type="line"/>
      <point x="10" y="30" type="line"/>
      <point x="10" y="10" type="line"/>
    </contour>
    <contour>
      <point x="30" y="30" type="line"/>
      <point x="30" y="60" type="line"/>
      <point x="20" y="60" type="line"/>
      <point x="20" y="30" type="line"/>
    </contour>
    <contour>
      <point x="60" y="10" type="line"/>
      <point x="60" y="30" type="line"/>
      <point x="50" y="30" type="line"/>
      <point x="50" y="10" type="line"/>
    </contour>
  </outline>
</glyph>
<glyph name="me-kata" format="1">
  <advance width="80"/>
  <unicode hex="30E1"/>
  <note>
    a
  </note>
  <outline>
    <contour>
      <point x="60" y="10" type="line"/>
      <point x="60" y="20" type="line"/>
      <point x="50" y="20" type="line"/>
      <point x="50" y="30" type="line"/>
      <point x="40" y="30" type="line"/>
      <point x="40" y="10" type="line"/>
    </contour>
    <contour>
      <point x="20" y="-10" type="line"/>
      <point x="20" y="0" type="line"/>
      <point x="0" y="0" type="line"/>
      <point x="0" y="-10" type="line"/>
    </contour>
    <contour>
      <point x="40" y="0" type="line"/>
      <point x="40" y="10" type="line"/>
      <point x="20" y="10" type="line"/>
      <point x="20" y="0" type="line"/>
    </contour>
    <contour>
      <point x="30" y="40" type="line"/>
      <point x="30" y="50" type="line"/>
      <point x="20" y="50" type="line"/>
      <point x="20" y="40" type="line"/>
    </contour>
    <contour>
      <point x="40" y="30" type="line"/>
      <point x="40" y="40" type="line"/>
      <point x="30" y="40" type="line"/>
      <point x="30" y="30" type="line"/>
    </contour>
    <contour>
      <point x="70" y="0" type="line"/>
      <point x="70" y="10" type="line"/>
      <point x="60" y="10" type="line"/>
      <point x="60" y="0" type="line"/>
    </contour>
    <contour>
      <point x="60" y="30" type="line"/>
      <point x="60" y="60" type="line"/>
      <point x="50" y="60" type="line"/>
      <point x="50" y="30" type="line"/>
    </contour>
  </outline>
</glyph>
<glyph name="mo-kata" format="1">
  <advance width="80"/>
  <unicode hex="30E2"/>
  <note>
    b
  </note>
  <outline>
    <contour>
      <point x="30" y="0" type="line"/>
      <point x="30" y="20" type="line"/>
      <point x="70" y="20" type="line"/>
      <point x="70" y="30" type="line"/>
      <point x="30" y="30" type="line"/>
      <point x="30" y="50" type="line"/>
      <point x="60" y="50" type="line"/>
      <point x="60" y="60" type="line"/>
      <point x="0" y="60" type="line"/>
      <point x="0" y="50" type="line"/>
      <point x="20" y="50" type="line"/>
      <point x="20" y="30" type="line"/>
      <point x="0" y="30" type="line"/>
      <point x="0" y="20" type="line"/>
      <point x="20" y="20" type="line"/>
      <point x="20" y="0" type="line"/>
    </contour>
    <contour>
      <point x="70" y="-10" type="line"/>
      <point x="70" y="0" type="line"/>
      <point x="30" y="0" type="line"/>
      <point x="30" y="-10" type="line"/>
    </contour>
  </outline>
</glyph>
<glyph name="yasmall-kata" format="1">
  <advance width="80"/>
  <unicode hex="30E3"/>
  <note>
    n
  </note>
  <outline>
    <contour>
      <point x="20" y="-10" type="line"/>
      <point x="20" y="20" type="line"/>
      <point x="40" y="20" type="line"/>
      <point x="40" y="10" type="line"/>
      <point x="50" y="10" type="line"/>
      <point x="50" y="30" type="line"/>
      <point x="20" y="30" type="line"/>
      <point x="20" y="40" type="line"/>
      <point x="10" y="40" type="line"/>
      <point x="10" y="30" type="line"/>
      <point x="0" y="30" type="line"/>
      <point x="0" y="20" type="line"/>
      <point x="10" y="20" type="line"/>
      <point x="10" y="-10" type="line"/>
    </contour>
    <contour>
      <point x="40" y="0" type="line"/>
      <point x="40" y="10" type="line"/>
      <point x="30" y="10" type="line"/>
      <point x="30" y="0" type="line"/>
    </contour>
  </outline>
</glyph>
<glyph name="ya-kata" format="1">
  <advance width="80"/>
  <unicode hex="30E4"/>
  <note>
    c
  </note>
  <outline>
    <contour>
      <point x="30" y="-10" type="line"/>
      <point x="30" y="40" type="line"/>
      <point x="60" y="40" type="line"/>
      <point x="60" y="30" type="line"/>
      <point x="70" y="30" type="line"/>
      <point x="70" y="50" type="line"/>
      <point x="30" y="50" type="line"/>
      <point x="30" y="60" type="line"/>
      <point x="20" y="60" type="line"/>
      <point x="20" y="50" type="line"/>
      <point x="0" y="50" type="line"/>
      <point x="0" y="40" type="line"/>
      <point x="20" y="40" type="line"/>
      <point x="20" y="-10" type="line"/>
    </contour>
    <contour>
      <point x="50" y="10" type="line"/>
      <point x="50" y="20" type="line"/>
      <point x="40" y="20" type="line"/>
      <point x="40" y="10" type="line"/>
    </contour>
    <contour>
      <point x="60" y="20" type="line"/>
      <point x="60" y="30" type="line"/>
      <point x="50" y="30" type="line"/>
      <point x="50" y="20" type="line"/>
    </contour>
  </outline>
</glyph>
<glyph name="yusmall-kata" format="1">
  <advance width="80"/>
  <unicode hex="30E5"/>
  <note>
    o
  </note>
  <outline>
    <contour>
      <point x="50" y="-10" type="line"/>
      <point x="50" y="0" type="line"/>
      <point x="40" y="0" type="line"/>
      <point x="40" y="30" type="line"/>
      <point x="10" y="30" type="line"/>
      <point x="10" y="20" type="line"/>
      <point x="30" y="20" type="line"/>
      <point x="30" y="0" type="line"/>
      <point x="0" y="0" type="line"/>
      <point x="0" y="-10" type="line"/>
    </contour>
  </outline>
</glyph>
<glyph name="yu-kata" format="1">
  <advance width="80"/>
  <unicode hex="30E6"/>
  <note>
    d
  </note>
  <outline>
    <contour>
      <point x="70" y="-10" type="line"/>
      <point x="70" y="0" type="line"/>
      <point x="50" y="0" type="line"/>
      <point x="50" y="50" type="line"/>
      <point x="10" y="50" type="line"/>
      <point x="10" y="40" type="line"/>
      <point x="40" y="40" type="line"/>
      <point x="40" y="0" type="line"/>
      <point x="0" y="0" type="line"/>
      <point x="0" y="-10" type="line"/>
    </contour>
  </outline>
</glyph>
<glyph name="yosmall-kata" format="1">
  <advance width="80"/>
  <unicode hex="30E7"/>
  <note>
    p
  </note>
  <outline>
    <contour>
      <point x="40" y="-10" type="line"/>
      <point x="40" y="40" type="line"/>
      <point x="0" y="40" type="line"/>
      <point x="0" y="30" type="line"/>
      <point x="30" y="30" type="line"/>
      <point x="30" y="20" type="line"/>
      <point x="0" y="20" type="line"/>
      <point x="0" y="10" type="line"/>
      <point x="30" y="10" type="line"/>
      <point x="30" y="0" type="line"/>
      <point x="0" y="0" type="line"/>
      <point x="0" y="-10" type="line"/>
    </contour>
  </outline>
</glyph>
<glyph name="ro-kata" format="1">
  <advance width="80"/>
  <unicode hex="30ED"/>
  <note>
    i
  </note>
  <outline>
    <contour>
      <point x="10" y="-10" type="line"/>
      <point x="10" y="0" type="line"/>
      <point x="60" y="0" type="line"/>
      <point x="60" y="-10" type="line"/>
      <point x="70" y="-10" type="line"/>
      <point x="70" y="60" type="line"/>
      <point x="0" y="60" type="line"/>
      <point x="0" y="-10" type="line"/>
    </contour>
    <contour>
      <point x="10" y="50" type="line"/>
      <point x="60" y="50" type="line"/>
      <point x="60" y="10" type="line"/>
      <point x="10" y="10" type="line"/>
    </contour>
  </outline>
</glyph>
<glyph name="wi-kata" format="1">
  <advance width="80"/>
  <unicode hex="30F0"/>
  <note>
    G
  </note>
  <outline>
    <contour>
      <point x="50" y="-10" type="line"/>
      <point x="50" y="20" type="line"/>
      <point x="70" y="20" type="line"/>
      <point x="70" y="30" type="line"/>
      <point x="50" y="30" type="line"/>
      <point x="50" y="50" type="line"/>
      <point x="70" y="50" type="line"/>
      <point x="70" y="60" type="line"/>
      <point x="50" y="60" type="line"/>
      <point x="50" y="70" type="line"/>
      <point x="40" y="70" type="line"/>
      <point x="40" y="60" type="line"/>
      <point x="0" y="60" type="line"/>
      <point x="0" y="50" type="line"/>
      <point x="10" y="50" type="line"/>
      <point x="10" y="30" type="line"/>
      <point x="0" y="30" type="line"/>
      <point x="0" y="20" type="line"/>
      <point x="40" y="20" type="line"/>
      <point x="40" y="-10" type="line"/>
    </contour>
    <contour>
      <point x="20" y="50" type="line"/>
      <point x="40" y="50" type="line"/>
      <point x="40" y="30" type="line"/>
      <point x="20" y="30" type="line"/>
    </contour>
  </outline>
</glyph>
<glyph name="wo-kata" format="1">
  <advance width="80"/>
  <unicode hex="30F2"/>
  <note>
    k
  </note>
  <outline>
    <contour>
      <point x="70" y="10" type="line"/>
      <point x="70" y="60" type="line"/>
      <point x="0" y="60" type="line"/>
      <point x="0" y="50" type="line"/>
      <point x="60" y="50" type="line"/>
      <point x="60" y="30" type="line"/>
      <point x="10" y="30" type="line"/>
      <point x="10" y="20" type="line"/>
      <point x="60" y="20" type="line"/>
      <point x="60" y="10" type="line"/>
    </contour>
    <contour>
      <point x="50" y="-10" type="line"/>
      <point x="50" y="0" type="line"/>
      <point x="10" y="0" type="line"/>
      <point x="10" y="-10" type="line"/>
    </contour>
    <contour>
      <point x="60" y="0" type="line"/>
      <point x="60" y="10" type="line"/>
      <point x="50" y="10" type="line"/>
      <point x="50" y="0" type="line"/>
    </contour>
  </outline>
</glyph>
<glyph name="n-kata" format="1">
  <advance width="80"/>
  <unicode hex="30F3"/>
  <note>
    l
  </note>
  <outline>
    <contour>
      <point x="70" y="10" type="line"/>
      <point x="70" y="60" type="line"/>
      <point x="60" y="60" type="line"/>
      <point x="60" y="10" type="line"/>
    </contour>
    <contour>
      <point x="50" y="-10" type="line"/>
      <point x="50" y="0" type="line"/>
      <point x="0" y="0" type="line"/>
      <point x="0" y="-10" type="line"/>
    </contour>
    <contour>
      <point x="60" y="0" type="line"/>
      <point x="60" y="10" type="line"/>
      <point x="50" y="10" type="line"/>
      <point x="50" y="0" type="line"/>
    </contour>
    <contour>
      <point x="30" y="50" type="line"/>
      <point x="30" y="60" type="line"/>
      <point x="0" y="60" type="line"/>
      <point x="0" y="50" type="line"/>
    </contour>
  </outline>
</glyph>
<glyph name="va-kata" format="1">
  <advance width="80"/>
  <unicode hex="30F7"/>
  <outline>
    <contour>
      <point x="70" y="10" type="line"/>
      <point x="70" y="60" type="line"/>
      <point x="0" y="60" type="line"/>
      <point x="0" y="20" type="line"/>
      <point x="10" y="20" type="line"/>
      <point x="10" y="50" type="line"/>
      <point x="60" y="50" type="line"/>
      <point x="60" y="10" type="line"/>
    </contour>
    <contour>
      <point x="50" y="-10" type="line"/>
      <point x="50" y="0" type="line"/>
      <point x="20" y="0" type="line"/>
      <point x="20" y="-10" type="line"/>
    </contour>
    <contour>
      <point x="60" y="0" type="line"/>
      <point x="60" y="10" type="line"/>
      <point x="50" y="10" type="line"/>
      <point x="50" y="0" type="line"/>
    </contour>
    <contour>
      <point x="40" y="80" type="line"/>
      <point x="40" y="90" type="line"/>
      <point x="30" y="90" type="line"/>
      <point x="30" y="80" type="line"/>
    </contour>
    <contour>
      <point x="50" y="70" type="line"/>
      <point x="50" y="80" type="line"/>
      <point x="40" y="80" type="line"/>
      <point x="40" y="70" type="line"/>
    </contour>
    <contour>
      <point x="60" y="90" type="line"/>
      <point x="60" y="100" type="line"/>
      <point x="50" y="100" type="line"/>
      <point x="50" y="90" type="line"/>
    </contour>
    <contour>
      <point x="70" y="80" type="line"/>
      <point x="70" y="90" type="line"/>
      <point x="60" y="90" type="line"/>
      <point x="60" y="80" type="line"/>
    </contour>
  </outline>
</glyph>
<glyph name="dot-kata" format="1">
  <advance width="80"/>
  <unicode hex="30FB"/>
  <note>
    p
  </note>
  <outline>
    <contour>
      <point x="50" y="20" type="line"/>
      <point x="50" y="40" type="line"/>
      <point x="30" y="40" type="line"/>
      <point x="30" y="20" type="line"/>
    </contour>
  </outline>
</glyph>
<glyph name="prolonged-kana" format="1">
  <advance width="80"/>
  <unicode hex="30FC"/>
  <note>
    l
  </note>
  <outline>
    <contour>
      <point x="70" y="30" type="line"/>
      <point x="70" y="40" type="line"/>
      <point x="10" y="40" type="line"/>
      <point x="10" y="30" type="line"/>
    </contour>
  </outline>
</glyph>
<glyph name="iteration-kata" format="1">
  <advance width="80"/>
  <unicode hex="30FD"/>
  <outline>
    <contour>
      <point x="54" y="8" type="line"/>
      <point x="54" y="18" type="line"/>
      <point x="44" y="18" type="line"/>
      <point x="44" y="8" type="line"/>
    </contour>
    <contour>
      <point x="24" y="38" type="line"/>
      <point x="24" y="48" type="line"/>
      <point x="14" y="48" type="line"/>
      <point x="14" y="38" type="line"/>
    </contour>
    <contour>
      <point x="34" y="28" type="line"/>
      <point x="34" y="38" type="line"/>
      <point x="24" y="38" type="line"/>
      <point x="24" y="28" type="line"/>
    </contour>
    <contour>
      <point x="44" y="18" type="line"/>
      <point x="44" y="28" type="line"/>
      <point x="34" y="28" type="line"/>
      <point x="34" y="18" type="line"/>
    </contour>
  </outline>
</glyph>
<glyph name="voicediteration-kata" format="1">
  <advance width="80"/>
  <unicode hex="30FE"/>
  <outline>
    <contour>
      <point x="70" y="50" type="line"/>
      <point x="70" y="60" type="line"/>
      <point x="60" y="60" type="line"/>
      <point x="60" y="50" type="line"/>
    </contour>
    <contour>
      <point x="24" y="38" type="line"/>
      <point x="24" y="48" type="line"/>
      <point x="14" y="48" type="line"/>
      <point x="14" y="38" type="line"/>
    </contour>
    <contour>
      <point x="34" y="28" type="line"/>
      <point x="34" y="38" type="line"/>
      <point x="24" y="38" type="line"/>
      <point x="24" y="28" type="line"/>
    </contour>
    <contour>
      <point x="44" y="18" type="line"/>
      <point x="44" y="28" type="line"/>
      <point x="34" y="28" type="line"/>
      <point x="34" y="18" type="line"/>
    </contour>
    <contour>
      <point x="54" y="8" type="line"/>
      <point x="54" y="18" type="line"/>
      <point x="44" y="18" type="line"/>
      <point x="44" y="8" type="line"/>
    </contour>
    <contour>
      <point x="40" y="50" type="line"/>
      <point x="40" y="60" type="line"/>
      <point x="30" y="60" type="line"/>
      <point x="30" y="50" type="line"/>
    </contour>
    <contour>
      <point x="50" y="40" type="line"/>
      <point x="50" y="50" type="line"/>
      <point x="40" y="50" type="line"/>
      <point x="40" y="40" type="line"/>
    </contour>
    <contour>
      <point x="60" y="60" type="line"/>
      <point x="60" y="70" type="line"/>
      <point x="50" y="70" type="line"/>
      <point x="50" y="60" type="line"/>
    </contour>
  </outline>
</glyph>
<glyph name="digraphkoto-kata" format="1">
  <advance width="80"/>
  <unicode hex="30FF"/>
  <outline>
    <contour>
      <point x="60" y="-10" type="line"/>
      <point x="60" y="60" type="line"/>
      <point x="0" y="60" type="line"/>
      <point x="0" y="50" type="line"/>
      <point x="50" y="50" type="line"/>
      <point x="50" y="-10" type="line"/>
    </contour>
  </outline>
</glyph>
<glyph name="uni5186" format="1">
  <advance width="80"/>
  <unicode hex="5186"/>
  <note>
    s
  </note>
  <outline>
    <contour>
      <point x="10" y="0" type="line"/>
      <point x="10" y="30" type="line"/>
      <point x="60" y="30" type="line"/>
      <point x="60" y="10" type="line"/>
      <point x="50" y="10" type="line"/>
      <point x="50" y="0" type="line"/>
      <point x="70" y="0" type="line"/>
      <point x="70" y="70" type="line"/>
      <point x="0" y="70" type="line"/>
      <point x="0" y="0" type="line"/>
    </contour>
    <contour>
      <point x="10" y="60" type="line"/>
      <point x="30" y="60" type="line"/>
      <point x="30" y="40" type="line"/>
      <point x="10" y="40" type="line"/>
    </contour>
    <contour>
      <point x="40" y="60" type="line"/>
      <point x="60" y="60" type="line"/>
      <point x="60" y="40" type="line"/>
      <point x="40" y="40" type="line"/>
    </contour>
  </outline>
</glyph>
<glyph name="quotesingle_l" format="1">
  <advance width="80"/>
  <note>
    g13
  </note>
  <outline>
    <contour>
      <point x="50" y="0" type="line"/>
      <point x="50" y="70" type="line"/>
      <point x="40" y="70" type="line"/>
      <point x="40" y="0" type="line"/>
    </contour>
    <contour>
      <point x="10" y="40" type="line"/>
      <point x="10" y="50" type="line"/>
      <point x="0" y="50" type="line"/>
      <point x="0" y="40" type="line"/>
    </contour>
    <contour>
      <point x="20" y="50" type="line"/>
      <point x="20" y="70" type="line"/>
      <point x="0" y="70" type="line"/>
      <point x="0" y="60" type="line"/>
      <point x="10" y="60" type="line"/>
      <point x="10" y="50" type="line"/>
    </contour>
  </outline>
</glyph>
<glyph name="quotesingle_m.liga" format="1">
  <advance width="80"/>
  <note>
    g18
  </note>
  <outline>
    <contour>
      <point x="80" y="0" type="line"/>
      <point x="80" y="40" type="line"/>
      <point x="70" y="40" type="line"/>
      <point x="70" y="0" type="line"/>
    </contour>
    <contour>
      <point x="30" y="0" type="line"/>
      <point x="30" y="40" type="line"/>
      <point x="20" y="40" type="line"/>
      <point x="20" y="0" type="line"/>
    </contour>
    <contour>
      <point x="10" y="40" type="line"/>
      <point x="10" y="50" type="line"/>
      <point x="0" y="50" type="line"/>
      <point x="0" y="40" type="line"/>
    </contour>
    <contour>
      <point x="50" y="0" type="line"/>
      <point x="50" y="40" type="line"/>
      <point x="40" y="40" type="line"/>
      <point x="40" y="0" type="line"/>
    </contour>
    <contour>
      <point x="20" y="50" type="line"/>
      <point x="20" y="70" type="line"/>
      <point x="0" y="70" type="line"/>
      <point x="0" y="60" type="line"/>
      <point x="10" y="60" type="line"/>
      <point x="10" y="50" type="line"/>
    </contour>
    <contour>
      <point x="40" y="40" type="line"/>
      <point x="40" y="50" type="line"/>
      <point x="30" y="50" type="line"/>
      <point x="30" y="40" type="line"/>
    </contour>
    <contour>
      <point x="70" y="40" type="line"/>
      <point x="70" y="50" type="line"/>
      <point x="50" y="50" type="line"/>
      <point x="50" y="40" type="line"/>
    </contour>
  </outline>
</glyph>
<glyph name="quotesingle_t" format="1">
  <advance width="80"/>
  <note>
    g15
  </note>
  <outline>
    <contour>
      <point x="50" y="10" type="line"/>
      <point x="50" y="40" type="line"/>
      <point x="70" y="40" type="line"/>
      <point x="70" y="50" type="line"/>
      <point x="50" y="50" type="line"/>
      <point x="50" y="60" type="line"/>
      <point x="40" y="60" type="line"/>
      <point x="40" y="50" type="line"/>
      <point x="20" y="50" type="line"/>
      <point x="20" y="40" type="line"/>
      <point x="40" y="40" type="line"/>
      <point x="40" y="10" type="line"/>
    </contour>
    <contour>
      <point x="10" y="40" type="line"/>
      <point x="10" y="50" type="line"/>
      <point x="0" y="50" type="line"/>
      <point x="0" y="40" type="line"/>
    </contour>
    <contour>
      <point x="70" y="0" type="line"/>
      <point x="70" y="10" type="line"/>
      <point x="50" y="10" type="line"/>
      <point x="50" y="0" type="line"/>
    </contour>
    <contour>
      <point x="20" y="50" type="line"/>
      <point x="20" y="70" type="line"/>
      <point x="0" y="70" type="line"/>
      <point x="0" y="60" type="line"/>
      <point x="10" y="60" type="line"/>
      <point x="10" y="50" type="line"/>
    </contour>
  </outline>
</glyph>
<glyph name="u_n_o_w_n_d.liga" format="1">
  <advance width="80"/>
  <note>
    d
  </note>
  <outline>
    <contour>
      <point x="40" y="50" type="line"/>
      <point x="40" y="60" type="line"/>
      <point x="60" y="60" type="line"/>
      <point x="60" y="70" type="line"/>
      <point x="30" y="70" type="line"/>
      <point x="30" y="60" type="line"/>
      <point x="20" y="60" type="line"/>
      <point x="20" y="50" type="line"/>
    </contour>
    <contour>
      <point x="60" y="0" type="line"/>
      <point x="60" y="10" type="line"/>
      <point x="30" y="10" type="line"/>
      <point x="30" y="0" type="line"/>
    </contour>
    <contour>
      <point x="20" y="30" type="line"/>
      <point x="20" y="50" type="line"/>
      <point x="10" y="50" type="line"/>
      <point x="10" y="30" type="line"/>
    </contour>
    <contour>
      <point x="40" y="20" type="line"/>
      <point x="40" y="30" type="line"/>
      <point x="20" y="30" type="line"/>
      <point x="20" y="20" type="line"/>
    </contour>
    <contour>
      <point x="50" y="30" type="line"/>
      <point x="50" y="50" type="line"/>
      <point x="40" y="50" type="line"/>
      <point x="40" y="30" type="line"/>
    </contour>
    <contour>
      <point x="70" y="10" type="line"/>
      <point x="70" y="60" type="line"/>
      <point x="60" y="60" type="line"/>
      <point x="60" y="10" type="line"/>
    </contour>
  </outline>
</glyph>
<glyph name="u_n_o_w_n_t.liga" format="1">
  <advance width="80"/>
  <note>
    t
  </note>
  <outline>
    <contour>
      <point x="50" y="40" type="line"/>
      <point x="50" y="50" type="line"/>
      <point x="40" y="50" type="line"/>
      <point x="40" y="60" type="line"/>
      <point x="60" y="60" type="line"/>
      <point x="60" y="70" type="line"/>
      <point x="10" y="70" type="line"/>
      <point x="10" y="60" type="line"/>
      <point x="30" y="60" type="line"/>
      <point x="30" y="50" type="line"/>
      <point x="20" y="50" type="line"/>
      <point x="20" y="40" type="line"/>
    </contour>
    <contour>
      <point x="20" y="10" type="line"/>
      <point x="20" y="40" type="line"/>
      <point x="10" y="40" type="line"/>
      <point x="10" y="10" type="line"/>
    </contour>
    <contour>
      <point x="50" y="0" type="line"/>
      <point x="50" y="10" type="line"/>
      <point x="20" y="10" type="line"/>
      <point x="20" y="0" type="line"/>
    </contour>
    <contour>
      <point x="40" y="20" type="line"/>
      <point x="40" y="30" type="line"/>
      <point x="30" y="30" type="line"/>
      <point x="30" y="20" type="line"/>
    </contour>
    <contour>
      <point x="60" y="10" type="line"/>
      <point x="60" y="40" type="line"/>
      <point x="50" y="40" type="line"/>
      <point x="50" y="10" type="line"/>
    </contour>
  </outline>
</glyph>
<glyph name="u_n_o_w_n_u.liga" format="1">
  <advance width="80"/>
  <note>
    u
  </note>
  <outline>
    <contour>
      <point x="60" y="-10" type="line"/>
      <point x="60" y="0" type="line"/>
      <point x="40" y="0" type="line"/>
      <point x="40" y="20" type="line"/>
      <point x="50" y="20" type="line"/>
      <point x="50" y="30" type="line"/>
      <point x="20" y="30" type="line"/>
      <point x="20" y="20" type="line"/>
      <point x="30" y="20" type="line"/>
      <point x="30" y="0" type="line"/>
      <point x="10" y="0" type="line"/>
      <point x="10" y="-10" type="line"/>
    </contour>
    <contour>
      <point x="10" y="0" type="line"/>
      <point x="10" y="10" type="line"/>
      <point x="0" y="10" type="line"/>
      <point x="0" y="0" type="line"/>
    </contour>
    <contour>
      <point x="20" y="10" type="line"/>
      <point x="20" y="20" type="line"/>
      <point x="10" y="20" type="line"/>
      <point x="10" y="10" type="line"/>
    </contour>
    <contour>
      <point x="20" y="30" type="line"/>
      <point x="20" y="50" type="line"/>
      <point x="10" y="50" type="line"/>
      <point x="10" y="30" type="line"/>
    </contour>
    <contour>
      <point x="60" y="10" type="line"/>
      <point x="60" y="20" type="line"/>
      <point x="50" y="20" type="line"/>
      <point x="50" y="10" type="line"/>
    </contour>
    <contour>
      <point x="70" y="0" type="line"/>
      <point x="70" y="10" type="line"/>
      <point x="60" y="10" type="line"/>
      <point x="60" y="0" type="line"/>
    </contour>
    <contour>
      <point x="50" y="50" type="line"/>
      <point x="50" y="60" type="line"/>
      <point x="20" y="60" type="line"/>
      <point x="20" y="50" type="line"/>
    </contour>
    <contour>
      <point x="60" y="30" type="line"/>
      <point x="60" y="50" type="line"/>
      <point x="50" y="50" type="line"/>
      <point x="50" y="30" type="line"/>
    </contour>
  </outline>
</glyph>
